<svg width="1366" height="1366" viewBox="0 0 1366 1366" fill="none" xmlns="http://www.w3.org/2000/svg">
<rect width="1366" height="1366" fill="#202225"/>
<path d="M665.133 695.306H613.824C612.724 695.306 611.637 695.556 610.647 696.037C608.143 697.253 606.553 699.793 606.553 702.578V705.724C606.553 707.809 607.083 709.861 608.094 711.685L616.351 726.581L644.346 772.812L665.342 809.526L682.661 837.166C684.161 839.559 686.167 841.596 688.538 843.131C691.671 845.16 695.323 846.239 699.054 846.239H946.9C948.597 846.239 950.263 845.789 951.729 844.934L954.063 843.574C955.566 842.698 956.49 841.09 956.49 839.351C956.49 838.518 956.277 837.698 955.871 836.971L938.293 805.446L915.897 766.013L893.501 727.94L885.645 715.948C884.433 714.098 882.37 712.983 880.158 712.983C877.996 712.983 875.973 714.048 874.75 715.831L873.905 717.062L840.073 770.96C839.3 772.192 838.404 773.341 837.398 774.39C833.367 778.594 827.795 780.971 821.971 780.971H736.997C734.094 780.971 731.266 780.05 728.919 778.34C727.604 777.382 726.47 776.198 725.57 774.842L698.936 734.739L679.545 703.344C678.484 701.625 677.123 700.11 675.528 698.87C672.555 696.56 668.897 695.306 665.133 695.306Z" fill="#F9CA24" stroke="#F9CA24" stroke-width="4.04432"/>
<path d="M765.267 354H712.054C710.828 354 709.65 354.478 708.771 355.332C707.858 356.219 707.343 357.438 707.343 358.711V360.889C707.343 362.612 707.794 364.304 708.651 365.799L834.998 585.924C835.735 587.208 836.768 588.298 838.01 589.103C839.517 590.079 841.274 590.598 843.069 590.598H893.861C895.477 590.598 897.076 590.278 898.568 589.657L900.734 588.755C903.987 587.401 906.107 584.223 906.107 580.699C906.107 579.167 905.703 577.661 904.937 576.335L841.718 466.86L788.528 374.396L781.819 364.62C780.695 362.983 779.412 361.462 777.988 360.078L776.367 358.504C775.15 357.322 773.753 356.342 772.227 355.601C770.058 354.547 767.679 354 765.267 354Z" fill="#F9CA24" stroke="#F9CA24" stroke-width="4.04432"/>
<path d="M932.952 920.916L958.665 875.853C959.291 874.757 959.444 873.467 959.091 872.271C958.745 871.1 957.941 870.114 956.852 869.528L954.787 868.416C953.241 867.583 951.5 867.149 949.726 867.153L690.204 867.782C688.753 867.786 687.32 868.127 686.022 868.778C684.387 869.598 683.033 870.877 682.137 872.448L657.617 915.419C656.793 916.863 656.28 918.453 656.108 920.091L655.908 922.009C655.533 925.593 657.361 929.025 660.562 930.749C661.923 931.481 663.455 931.861 665.016 931.854L794.241 931.216L903.277 930.851L915.4 929.884C917.373 929.727 919.328 929.38 921.237 928.848L923.551 928.204C925.159 927.756 926.685 927.057 928.07 926.134C930.089 924.79 931.761 923.002 932.952 920.916Z" fill="#F9CA24" stroke="#F9CA24" stroke-width="4.04432"/>
<path d="M814.139 590.597L688.398 373.881C687.122 371.682 684.773 370.329 682.231 370.329C680.376 370.329 678.594 371.052 677.263 372.345L677.221 372.387C676.768 372.826 676.375 373.323 676.05 373.864L603.182 495.402C602.639 496.308 602.352 497.344 602.352 498.401C602.352 499.977 602.99 501.485 604.12 502.583L604.623 503.072C604.975 503.413 605.359 503.72 605.77 503.986L606.201 504.265C608.257 505.596 610.654 506.305 613.104 506.305H671.384C672.952 506.305 674.517 506.431 676.064 506.681L677.332 506.886C680.501 507.4 683.529 508.566 686.224 510.311C689.065 512.15 691.467 514.59 693.264 517.457L710.133 544.378L732.417 585.395C735.246 590.602 736.728 596.433 736.728 602.359V605.589C736.728 607.375 736.432 609.149 735.852 610.838C735.504 611.854 735.055 612.833 734.512 613.759L696.792 678.2C695.445 680.501 694.736 683.118 694.736 685.784C694.736 688.46 695.451 691.088 696.808 693.395L727.265 745.172C727.925 746.293 729.128 746.981 730.429 746.981C731.73 746.981 732.934 746.293 733.593 745.172L814.086 608.334C815.676 605.632 816.514 602.554 816.514 599.42C816.514 596.321 815.694 593.277 814.139 590.597Z" fill="#F9CA24" stroke="#F9CA24" stroke-width="4.04432"/>
<path d="M702.815 609.672L545.035 610.982C543.148 610.998 541.289 611.434 539.592 612.258C537.612 613.22 535.915 614.68 534.67 616.495L530.971 621.884L407.11 836.841C406.641 837.656 406.394 838.579 406.394 839.519C406.394 842.482 408.795 844.883 411.758 844.883H551.695C552.795 844.883 553.883 844.633 554.873 844.152C557.375 842.937 558.966 840.398 558.966 837.617C558.966 836.15 558.522 834.718 557.692 833.508L556.167 831.286L547.768 816.328L529.226 783.68C526.7 779.233 525.372 774.207 525.372 769.093C525.372 764.391 526.495 759.757 528.647 755.577L530.971 751.06L570.883 686.442C572.261 684.211 573.992 682.217 576.007 680.539C580.372 676.904 585.872 674.914 591.552 674.914H666.218C671.885 674.914 677.269 672.439 680.959 668.138C681.747 667.219 682.448 666.227 683.053 665.177L707.171 623.251C708.199 621.464 708.74 619.439 708.74 617.378V615.548C708.74 614.361 708.38 613.202 707.708 612.223C706.603 610.612 704.769 609.656 702.815 609.672Z" fill="#F9CA24" stroke="#F9CA24" stroke-width="4.04432"/>
<path d="M702.815 609.672L545.035 610.982C543.148 610.998 541.289 611.434 539.592 612.258C537.612 613.22 535.915 614.68 534.67 616.495L530.971 621.884L407.11 836.841C406.641 837.656 406.394 838.579 406.394 839.519C406.394 842.482 408.795 844.883 411.758 844.883H551.695C552.795 844.883 553.883 844.633 554.873 844.152C557.375 842.937 558.966 840.398 558.966 837.617C558.966 836.15 558.522 834.718 557.692 833.508L556.167 831.286L547.768 816.328L529.226 783.68C526.7 779.233 525.372 774.207 525.372 769.093C525.372 764.391 526.495 759.757 528.647 755.577L530.971 751.06L570.883 686.442C572.261 684.211 573.992 682.217 576.007 680.539C580.372 676.904 585.872 674.914 591.552 674.914H666.218C671.885 674.914 677.269 672.439 680.959 668.138C681.747 667.219 682.448 666.227 683.053 665.177L707.171 623.251C708.199 621.464 708.74 619.439 708.74 617.378V615.548C708.74 614.361 708.38 613.202 707.708 612.223C706.603 610.612 704.769 609.656 702.815 609.672Z" fill="#F9CA24" stroke="#F9CA24" stroke-width="4.04432"/>
<path d="M351.355 763.309L479.159 544.061C480.036 542.555 481.648 541.629 483.392 541.629C485.118 541.629 486.717 542.538 487.6 544.021L514.146 588.562C515.994 591.663 516.97 595.206 516.97 598.816C516.97 602.329 516.046 605.78 514.291 608.823L387.492 828.685C387.06 829.435 386.26 829.898 385.393 829.898C382.786 829.898 380.368 828.537 379.015 826.308L351.513 781.006C349.869 778.299 349 775.192 349 772.025C349 768.962 349.813 765.955 351.355 763.309Z" fill="#F9CA24" stroke="#F9CA24" stroke-width="4.04432"/>
<path d="M535.317 581.13L511.302 541.895C508.98 538.103 507.752 533.743 507.752 529.297C507.752 527.795 508.97 526.578 510.472 526.578H660.088C666.566 526.578 672.833 528.881 677.769 533.077C680.12 535.075 682.115 537.457 683.67 540.122L703.67 574.409C704.617 576.033 705.117 577.879 705.117 579.759V581.855C705.117 584.639 703.527 587.179 701.022 588.396C700.032 588.877 698.946 589.126 697.845 589.126H549.586C547.836 589.126 546.097 588.852 544.432 588.313C540.634 587.083 537.401 584.535 535.317 581.13Z" fill="#F9CA24" stroke="#F9CA24" stroke-width="4.04432"/>
<path d="M666.111 862.503L641.973 904.347C639.618 908.43 636.185 911.812 632.028 914.143C630.625 914.93 628.823 914.447 628.001 913.065L549.878 781.618C546.384 775.739 545.198 768.837 546.545 762.219C547.162 759.187 548.297 756.286 549.902 753.635L571.552 717.876C572.571 716.192 574.017 714.797 575.753 713.824L577.955 712.589C580.433 711.199 583.516 711.3 585.932 712.849C586.94 713.496 587.782 714.364 588.387 715.384L665.948 845.885C666.889 847.468 667.561 849.187 667.937 850.974C668.77 854.925 668.121 859.018 666.111 862.503Z" fill="#F9CA24" stroke="#F9CA24" stroke-width="4.04432"/>
<path d="M754.758 749.006L835.913 613.67C836.943 611.952 838.56 610.666 840.465 610.049C841.29 609.782 842.151 609.646 843.017 609.646H899.754C900.249 609.646 900.744 609.694 901.231 609.788C904.87 610.495 907.498 613.683 907.498 617.39V618.178C907.498 619.714 907.091 621.224 906.318 622.552L889.301 651.798L866.905 691.231L844.509 729.304L832.618 750.098C831.225 752.533 829.408 754.699 827.252 756.494C823.027 760.012 817.703 761.939 812.205 761.939H761.828C760.071 761.939 758.359 761.381 756.939 760.346C754.794 758.784 753.525 756.29 753.525 753.636V753.457C753.525 751.889 753.951 750.35 754.758 749.006Z" fill="#F9CA24" stroke="#F9CA24" stroke-width="4.04432"/>
<path d="M754.758 749.006L835.913 613.67C836.943 611.952 838.56 610.666 840.465 610.049C841.29 609.782 842.151 609.646 843.017 609.646H899.754C900.249 609.646 900.744 609.694 901.231 609.788C904.87 610.495 907.498 613.683 907.498 617.39V618.178C907.498 619.714 907.091 621.224 906.318 622.552L889.301 651.798L866.905 691.231L844.509 729.304L832.618 750.098C831.225 752.533 829.408 754.699 827.252 756.494C823.027 760.012 817.703 761.939 812.205 761.939H761.828C760.071 761.939 758.359 761.381 756.939 760.346C754.794 758.784 753.525 756.29 753.525 753.636V753.457C753.525 751.889 753.951 750.35 754.758 749.006Z" fill="#F9CA24" stroke="#F9CA24" stroke-width="4.04432"/>
</svg>
