<svg width="1366" height="1366" viewBox="0 0 1366 1366" fill="none" xmlns="http://www.w3.org/2000/svg">
<g clip-path="url(#clip0_2607_2)">
<path d="M712.808 753.136H604.91C602.595 753.136 600.311 753.661 598.229 754.672C592.962 757.231 589.618 762.572 589.618 768.427V775.043C589.618 779.429 590.734 783.743 592.86 787.58L610.223 818.904L669.095 916.126L713.249 993.332L749.67 1051.46C752.824 1056.49 757.043 1060.77 762.029 1064C768.616 1068.27 776.296 1070.54 784.143 1070.54H1305.35C1308.92 1070.54 1312.42 1069.59 1315.5 1067.8L1320.41 1064.93C1323.57 1063.09 1325.52 1059.71 1325.52 1056.05C1325.52 1054.3 1325.07 1052.58 1324.21 1051.05L1287.25 984.754L1240.15 901.829L1193.05 821.763L1176.53 796.545C1173.98 792.653 1169.65 790.309 1164.99 790.309C1160.45 790.309 1156.19 792.549 1153.62 796.298L1151.84 798.887L1080.7 912.232C1079.07 914.821 1077.19 917.238 1075.07 919.445C1066.59 928.285 1054.88 933.283 1042.63 933.283H863.935C857.83 933.283 851.883 931.346 846.948 927.751C844.183 925.736 841.798 923.245 839.905 920.395L783.895 836.061L743.117 770.04C740.885 766.425 738.023 763.239 734.668 760.631C728.417 755.773 720.725 753.136 712.808 753.136Z" fill="#F9CA24" stroke="#F9CA24" stroke-width="4.04432"/>
<path d="M923.387 35.3889H811.481C808.903 35.3889 806.427 36.3937 804.578 38.1898C802.658 40.0553 801.574 42.6186 801.574 45.2958V49.8759C801.574 53.4989 802.523 57.0588 804.327 60.201L1070.03 523.113C1071.58 525.813 1073.75 528.104 1076.36 529.797C1079.53 531.849 1083.22 532.94 1087 532.94H1193.81C1197.21 532.94 1200.57 532.268 1203.71 530.962L1208.27 529.066C1215.11 526.217 1219.56 519.534 1219.56 512.123C1219.56 508.901 1218.72 505.736 1217.1 502.946L1084.16 272.727L972.302 78.2813L958.193 57.7221C955.831 54.2798 953.132 51.0805 950.138 48.1715L946.729 44.8598C944.17 42.3745 941.231 40.3137 938.023 38.7553C933.462 36.54 928.457 35.3889 923.387 35.3889Z" fill="#F9CA24" stroke="#F9CA24" stroke-width="4.04432"/>
<path d="M1276.02 1227.58L1330.09 1132.82C1331.41 1130.51 1331.73 1127.8 1330.99 1125.28C1330.26 1122.82 1328.57 1120.75 1326.28 1119.51L1321.93 1117.18C1318.68 1115.42 1315.02 1114.51 1311.29 1114.52L765.532 1115.84C762.481 1115.85 759.467 1116.57 756.738 1117.94C753.298 1119.66 750.452 1122.35 748.567 1125.65L697.003 1216.02C695.271 1219.06 694.191 1222.4 693.831 1225.85L693.409 1229.88C692.621 1237.41 696.465 1244.63 703.197 1248.26C706.058 1249.8 709.28 1250.6 712.563 1250.58L984.315 1249.24L1213.61 1248.47L1239.1 1246.44C1243.25 1246.11 1247.37 1245.38 1251.38 1244.26L1256.25 1242.91C1259.63 1241.96 1262.84 1240.49 1265.75 1238.55C1270 1235.73 1273.51 1231.97 1276.02 1227.58Z" fill="#F9CA24" stroke="#F9CA24" stroke-width="4.04432"/>
<path d="M1026.16 532.938L761.733 77.1973C759.05 72.5742 754.11 69.7288 748.765 69.7288C744.864 69.7288 741.116 71.2493 738.318 73.9675L738.228 74.0549C737.276 74.9795 736.449 76.024 735.766 77.1622L582.53 332.749C581.387 334.655 580.784 336.834 580.784 339.055C580.784 342.369 582.125 345.542 584.503 347.851L585.56 348.878C586.299 349.596 587.107 350.24 587.972 350.801L588.878 351.387C593.201 354.187 598.243 355.677 603.395 355.677H725.954C729.251 355.677 732.542 355.942 735.796 356.469L738.462 356.9C745.127 357.979 751.495 360.432 757.162 364.102C763.135 367.97 768.188 373.099 771.966 379.129L807.44 435.743L854.303 521.998C860.252 532.948 863.368 545.212 863.368 557.674V564.465C863.368 568.221 862.746 571.952 861.527 575.505C860.794 577.641 859.85 579.699 858.709 581.648L779.385 717.163C776.553 722.001 775.061 727.505 775.061 733.111C775.061 738.74 776.566 744.266 779.42 749.117L843.468 858C844.855 860.358 847.387 861.806 850.122 861.806C852.858 861.806 855.389 860.358 856.776 858L1026.05 570.238C1029.39 564.556 1031.15 558.084 1031.15 551.493C1031.15 544.976 1029.43 538.575 1026.16 532.938Z" fill="#F9CA24" stroke="#F9CA24" stroke-width="4.04432"/>
<path d="M792.051 573.052L460.248 575.807C456.281 575.84 452.371 576.757 448.803 578.49C444.638 580.513 441.071 583.583 438.451 587.401L430.674 598.733L170.201 1050.78C169.214 1052.49 168.694 1054.43 168.694 1056.41C168.694 1062.64 173.745 1067.69 179.974 1067.69H474.254C476.569 1067.69 478.856 1067.16 480.938 1066.15C486.199 1063.59 489.546 1058.26 489.546 1052.41C489.546 1049.32 488.612 1046.31 486.866 1043.77L483.659 1039.09L465.997 1007.64L427.003 938.981C421.692 929.63 418.9 919.06 418.9 908.306C418.9 898.418 421.261 888.673 425.786 879.881L430.674 870.384L514.606 734.495C517.504 729.802 521.143 725.61 525.382 722.081C534.561 714.438 546.128 710.253 558.072 710.253H715.089C727.007 710.253 738.329 705.048 746.089 696.003C747.747 694.069 749.222 691.984 750.492 689.776L801.211 601.608C803.373 597.851 804.51 593.592 804.51 589.258V585.408C804.51 582.912 803.754 580.475 802.342 578.417C800.017 575.029 796.16 573.018 792.051 573.052Z" fill="#F9CA24" stroke="#F9CA24" stroke-width="4.04432"/>
<path d="M792.051 573.052L460.248 575.807C456.281 575.84 452.371 576.757 448.803 578.49C444.638 580.513 441.071 583.583 438.451 587.401L430.674 598.733L170.201 1050.78C169.214 1052.49 168.694 1054.43 168.694 1056.41C168.694 1062.64 173.745 1067.69 179.974 1067.69H474.254C476.569 1067.69 478.856 1067.16 480.938 1066.15C486.199 1063.59 489.546 1058.26 489.546 1052.41C489.546 1049.32 488.612 1046.31 486.866 1043.77L483.659 1039.09L465.997 1007.64L427.003 938.981C421.692 929.63 418.9 919.06 418.9 908.306C418.9 898.418 421.261 888.673 425.786 879.881L430.674 870.384L514.606 734.495C517.504 729.802 521.143 725.61 525.382 722.081C534.561 714.438 546.128 710.253 558.072 710.253H715.089C727.007 710.253 738.329 705.048 746.089 696.003C747.747 694.069 749.222 691.984 750.492 689.776L801.211 601.608C803.373 597.851 804.51 593.592 804.51 589.258V585.408C804.51 582.912 803.754 580.475 802.342 578.417C800.017 575.029 796.16 573.018 792.051 573.052Z" fill="#F9CA24" stroke="#F9CA24" stroke-width="4.04432"/>
<path d="M52.9522 896.142L321.716 435.077C323.562 431.91 326.952 429.962 330.618 429.962C334.248 429.962 337.61 431.873 339.469 434.991L395.292 528.658C399.179 535.18 401.23 542.631 401.23 550.223C401.23 557.61 399.288 564.867 395.597 571.267L128.947 1033.62C128.038 1035.2 126.355 1036.17 124.533 1036.17C119.05 1036.17 113.965 1033.31 111.12 1028.63L53.2844 933.358C49.8278 927.664 48 921.132 48 914.471C48 908.031 49.7089 901.706 52.9522 896.142Z" fill="#F9CA24" stroke="#F9CA24" stroke-width="4.04432"/>
<path d="M439.813 513.031L389.31 430.52C384.429 422.546 381.846 413.378 381.846 404.029C381.846 400.87 384.406 398.31 387.565 398.31H702.198C715.822 398.31 729.001 403.154 739.381 411.977C744.325 416.179 748.521 421.189 751.79 426.793L793.85 498.896C795.842 502.311 796.891 506.194 796.891 510.148V514.554C796.891 520.41 793.548 525.751 788.281 528.309C786.199 529.321 783.914 529.846 781.6 529.846H469.82C466.14 529.846 462.483 529.269 458.982 528.135C450.995 525.549 444.196 520.191 439.813 513.031Z" fill="#F9CA24" stroke="#F9CA24" stroke-width="4.04432"/>
<path d="M714.865 1104.74L664.106 1192.74C659.153 1201.32 651.934 1208.43 643.192 1213.34C640.242 1214.99 636.451 1213.98 634.723 1211.07L470.436 934.646C463.088 922.281 460.594 907.766 463.427 893.849C464.725 887.475 467.111 881.373 470.486 875.798L516.014 800.599C518.158 797.058 521.199 794.125 524.848 792.078L529.479 789.481C534.69 786.558 541.175 786.77 546.255 790.028C548.375 791.388 550.144 793.214 551.418 795.358L714.525 1069.79C716.503 1073.12 717.915 1076.74 718.707 1080.5C720.457 1088.8 719.093 1097.41 714.865 1104.74Z" fill="#F9CA24" stroke="#F9CA24" stroke-width="4.04432"/>
<path d="M901.285 866.062L1071.95 581.459C1074.12 577.847 1077.52 575.142 1081.52 573.845C1083.26 573.284 1085.07 572.998 1086.89 572.998H1206.2C1207.25 572.998 1208.29 573.098 1209.31 573.297C1216.96 574.784 1222.49 581.486 1222.49 589.283V590.939C1222.49 594.171 1221.63 597.345 1220.01 600.139L1184.22 661.642L1137.12 744.567L1090.03 824.632L1065.02 868.359C1062.09 873.48 1058.27 878.036 1053.74 881.811C1044.85 889.209 1033.65 893.26 1022.09 893.26H916.154C912.459 893.26 908.859 892.087 905.872 889.911C901.361 886.625 898.693 881.38 898.693 875.799V875.423C898.693 872.125 899.589 868.89 901.285 866.062Z" fill="#F9CA24" stroke="#F9CA24" stroke-width="4.04432"/>
<path d="M901.285 866.062L1071.95 581.459C1074.12 577.847 1077.52 575.142 1081.52 573.845C1083.26 573.284 1085.07 572.998 1086.89 572.998H1206.2C1207.25 572.998 1208.29 573.098 1209.31 573.297C1216.96 574.784 1222.49 581.486 1222.49 589.283V590.939C1222.49 594.171 1221.63 597.345 1220.01 600.139L1184.22 661.642L1137.12 744.567L1090.03 824.632L1065.02 868.359C1062.09 873.48 1058.27 878.036 1053.74 881.811C1044.85 889.209 1033.65 893.26 1022.09 893.26H916.154C912.459 893.26 908.859 892.087 905.872 889.911C901.361 886.625 898.693 881.38 898.693 875.799V875.423C898.693 872.125 899.589 868.89 901.285 866.062Z" fill="#F9CA24" stroke="#F9CA24" stroke-width="4.04432"/>
</g>
<defs>
<clipPath id="clip0_2607_2">
<rect width="1366" height="1366" fill="white"/>
</clipPath>
</defs>
</svg>
