<svg width="38" height="50" viewBox="0 0 38 50" fill="none" xmlns="http://www.w3.org/2000/svg">
<path fill-rule="evenodd" clip-rule="evenodd" d="M25.0053 19.0014L26.3313 19.0646H27.3416V18.7489H25.0053V19.0014Z" fill="white"/>
<path fill-rule="evenodd" clip-rule="evenodd" d="M5.74605 16.0966C5.92919 16.0966 9.55802 14.8341 9.88346 14.6774C11.1953 14.0452 12.3363 13.5322 13.576 12.8763C14.045 13.5768 14.8388 14.5176 14.8388 15.6546C14.8388 16.2877 8.25202 19.2538 7.07205 19.2538L5.93739 19.6388C5.9443 19.2365 6.42981 18.0327 6.3704 17.6871C6.32336 17.4131 5.58708 16.4627 5.55658 16.0966H5.74605ZM22.6687 14.8969C22.6687 13.9673 23.5571 13.1908 24.121 12.8131C25.2752 13.586 30.5749 15.9611 32.2035 16.0966L31.0901 17.3872L31.7856 19.5621C30.9592 19.5517 27.3671 18.1693 26.6256 17.8227C25.8152 17.4439 25.0416 17.1134 24.3241 16.6513C23.607 16.1894 22.6687 15.9951 22.6687 14.8969ZM23.3002 12.6868L23.237 12.75L23.1739 12.8131L23.1107 12.8763L22.9844 12.9394L22.9213 13.0026L22.8581 13.0657L22.795 13.1288L22.7319 13.192L22.6687 13.2551L22.6056 13.3183L22.5424 13.3814L22.4792 13.4445L22.4162 13.5709L22.353 13.634L22.1598 14.0745C22.0365 14.0421 20.8441 13.3916 20.5233 13.2537C19.9942 13.0262 19.1396 12.9394 18.3749 12.9394C17.096 12.9394 15.2667 14.2023 15.2177 14.2023C15.2036 14.2023 13.7654 12.2643 13.7654 11.866V11.4871C13.7654 10.4584 17.7176 10.0979 19.1326 10.0979H19.5746C20.6275 10.0979 21.5354 10.2768 22.3665 10.4633C23.2578 10.6633 23.9316 10.9226 23.9316 11.9923V12.1185C23.9316 12.3125 23.5922 12.5337 23.4896 12.6868H23.3002ZM25.1945 17.6752L27.5308 18.7487L29.8557 19.5459L32.6455 20.3273C32.6386 20.0201 32.3026 19.2026 32.2163 18.9253C32.1639 18.757 31.7615 17.5718 31.7615 17.549C31.7615 17.3425 32.9649 16.3033 33.0875 15.844C32.2859 15.844 29.2703 14.6901 28.5417 14.3911C26.9529 13.7391 25.8661 13.1906 24.4367 12.4342C24.6609 11.9672 24.4072 11.0544 24.171 10.8056C23.7629 10.3758 23.4879 10.2997 22.8325 10.1236C21.6645 9.80982 20.6667 9.6559 19.1958 9.6559H18.3749C17.3309 9.6559 16.184 9.85491 15.2944 10.0483C14.6697 10.1842 13.1339 10.7808 13.1339 11.424V11.6765C13.1339 12.0522 13.2525 12.1519 13.2602 12.4974C13.0387 12.549 11.6852 13.3361 11.3031 13.5081C10.6355 13.8088 9.93368 14.1514 9.22731 14.4001C8.22691 14.7523 5.80719 15.7549 4.73574 15.844C4.83073 16.2519 5.74605 17.6358 5.74605 17.7384C5.74605 18.3558 5.17772 19.5551 5.17772 20.0747V20.2642C5.84501 20.2493 7.31587 19.7192 7.98156 19.5319C8.55417 19.3708 10.2738 18.6224 10.6713 18.6224C10.7089 18.7631 10.6861 18.8118 10.8607 18.8118H13.0708V18.4961H10.9239C11.1609 18.2901 12.8584 17.5693 13.3243 17.2973C13.9213 16.9489 15.2979 16.469 15.5476 15.7942L15.344 14.8969C15.7432 14.3007 17.477 13.3814 18.5012 13.3814H18.7538C19.8057 13.3814 21.6623 14.1476 22.0373 14.7074C22.0373 16.0474 22.4416 16.0146 23.1901 16.5855C23.6798 16.9591 24.6081 17.3938 25.1945 17.6752Z" fill="white"/>
<path fill-rule="evenodd" clip-rule="evenodd" d="M10.7952 19.6167L10.7985 19.8933L13.1468 19.6292L13.0656 19.2819L10.7952 19.6167Z" fill="white"/>
<path fill-rule="evenodd" clip-rule="evenodd" d="M24.9421 19.8222L27.2785 20.2011V19.8854L27.09 19.8792L24.9421 19.5696V19.8222Z" fill="white"/>
<path fill-rule="evenodd" clip-rule="evenodd" d="M19.7012 20.7692L19.8906 21.0218C20.2368 20.79 20.5852 20.3379 20.5852 19.759H20.2064C20.1953 20.2573 19.9036 20.467 19.7012 20.7692Z" fill="white"/>
<path fill-rule="evenodd" clip-rule="evenodd" d="M10.9238 20.8326C10.9238 21.2654 12.7896 20.4642 13.273 20.4505L13.197 20.138C12.9142 20.1615 10.9238 20.7006 10.9238 20.8326Z" fill="white"/>
<path fill-rule="evenodd" clip-rule="evenodd" d="M24.74 20.6397C25.2287 20.6825 26.5692 21.2743 26.963 21.2743C27.0922 21.2743 27.0791 21.1443 27.085 21.0353L24.8183 20.3277L24.74 20.6397Z" fill="white"/>
<path fill-rule="evenodd" clip-rule="evenodd" d="M21.0904 21.1483L21.5324 20.6432L21.2023 20.9445L21.143 20.9062L21.441 20.1491L21.0904 20.138L20.5441 21.1616L20.8378 21.464L21.0904 21.2115L20.8874 21.3873L20.8272 21.3483L21.0973 21.027L21.164 21.0746L21.0904 21.1483Z" fill="white"/>
<path fill-rule="evenodd" clip-rule="evenodd" d="M18.7444 21.2003L17.9864 19.9906L18.0596 19.9482H17.7438C17.7438 20.6169 18.1005 21.1319 18.5015 21.4004L18.7444 21.2003Z" fill="white"/>
<path fill-rule="evenodd" clip-rule="evenodd" d="M11.1769 21.8426L11.3137 22.12L13.45 21.2112C13.4375 20.651 12.8318 21.1231 12.4186 21.3163C11.996 21.5138 11.5768 21.6507 11.1769 21.8426Z" fill="white"/>
<path fill-rule="evenodd" clip-rule="evenodd" d="M29.299 21.4637C29.1215 21.4637 28.7284 21.0217 28.6676 21.0217C28.4261 21.0217 28.6446 21.0024 28.4554 21.115L29.3141 21.7315L30.0567 20.9586C30.0555 20.9576 29.9389 20.8954 29.9304 20.8954C29.8345 20.8954 29.3949 21.4637 29.299 21.4637Z" fill="white"/>
<path fill-rule="evenodd" clip-rule="evenodd" d="M7.76678 21.0217C7.76678 21.0973 8.41295 21.6532 8.52453 21.6532H8.58767C8.71591 21.6532 9.2738 21.1918 9.34541 21.0849C9.34418 21.0839 9.22764 21.0217 9.21909 21.0217C9.1453 21.0217 8.66748 21.3881 8.52453 21.4637C8.40248 21.382 7.94486 20.8954 7.89309 20.8954C7.83691 20.8954 7.76678 20.9656 7.76678 21.0217Z" fill="white"/>
<path fill-rule="evenodd" clip-rule="evenodd" d="M24.4999 21.4007L26.7022 22.3454L26.7731 22.0953C26.3831 22.0044 24.8983 21.1481 24.6893 21.1481C24.5759 21.1481 24.5259 21.292 24.4999 21.4007Z" fill="white"/>
<path fill-rule="evenodd" clip-rule="evenodd" d="M29.4881 22.7268C29.2223 22.7268 28.7696 22.1584 28.6672 22.1584C28.4258 22.1584 28.6443 22.139 28.4778 22.2216C28.5721 22.3624 29.3065 22.9793 29.4881 22.9793C29.5033 22.9793 30.4221 22.1988 30.4168 22.088C30.395 21.6321 29.631 22.7268 29.4881 22.7268Z" fill="white"/>
<path fill-rule="evenodd" clip-rule="evenodd" d="M8.28349 22.9683L9.38203 22.275L9.34551 22.2217C9.09921 22.1078 8.62209 22.577 8.39677 22.7287L7.49707 21.9773L7.41101 22.0713L8.28349 22.9683Z" fill="white"/>
<path fill-rule="evenodd" clip-rule="evenodd" d="M24.1845 22.0321C24.1845 22.1681 26.0787 23.3582 26.2052 23.3582C26.2614 23.3582 26.3314 23.288 26.3314 23.2318C26.3314 23.0422 24.5704 21.9801 24.3109 21.8427C24.2755 21.8935 24.1845 21.9986 24.1845 22.0321Z" fill="white"/>
<path fill-rule="evenodd" clip-rule="evenodd" d="M11.6188 22.9161C11.6188 23.0194 11.6566 23.1055 11.7451 23.1055C11.8814 23.1055 13.7657 21.9592 13.7657 21.9058C13.7657 21.8024 13.7279 21.7163 13.6395 21.7163C13.4879 21.7163 11.6188 22.8243 11.6188 22.9161Z" fill="white"/>
<path fill-rule="evenodd" clip-rule="evenodd" d="M12.1236 23.9895C12.1248 23.9905 12.2414 24.0527 12.2499 24.0527C12.4178 24.0527 14.037 22.7605 14.1534 22.5928L14.0179 22.4109C13.7016 22.5783 12.2013 23.6984 12.1236 23.9895Z" fill="white"/>
<path fill-rule="evenodd" clip-rule="evenodd" d="M7.19815 22.9161C7.29727 23.0642 8.18659 23.9265 8.33471 23.9265H8.3979C8.59478 23.9265 9.36161 23.2695 9.47132 23.1056C9.16727 22.9649 8.55007 23.737 8.3979 23.737C8.094 23.737 7.41378 22.6707 7.19815 22.9161Z" fill="white"/>
<path fill-rule="evenodd" clip-rule="evenodd" d="M12.6769 24.7957L12.8962 25.0151L14.6633 23.2812L14.4117 23.0576L12.6769 24.7957Z" fill="white"/>
<path fill-rule="evenodd" clip-rule="evenodd" d="M29.4883 23.7372C29.2232 23.7372 28.6688 22.9591 28.3221 23.1453L29.4948 23.9969L30.6249 22.9163C30.2484 22.7421 29.7259 23.7372 29.4883 23.7372Z" fill="white"/>
<path fill-rule="evenodd" clip-rule="evenodd" d="M23.8054 22.7268C23.8054 22.9188 25.397 24.145 25.6442 24.3145L25.8464 24.1552L23.9316 22.5373C23.8963 22.5882 23.8054 22.6932 23.8054 22.7268Z" fill="white"/>
<path fill-rule="evenodd" clip-rule="evenodd" d="M29.4886 24.6844C29.2599 24.5313 28.6115 23.7811 28.399 24.0742L29.5517 24.937C29.6799 24.8512 30.6729 23.9161 30.6698 23.8562C30.6529 23.5183 29.7117 24.535 29.4886 24.6844Z" fill="white"/>
<path fill-rule="evenodd" clip-rule="evenodd" d="M23.2895 23.4118L25.0187 25.2031L25.1972 24.9978L23.5005 23.1786L23.2895 23.4118Z" fill="white"/>
<path fill-rule="evenodd" clip-rule="evenodd" d="M8.46102 24.8737C8.69508 24.5241 9.5024 24.2668 9.34505 23.9265C9.16106 24.0497 8.43906 24.6211 8.27158 24.6211C8.07497 24.6211 7.56123 23.8304 7.19815 23.8002C7.32525 24.2763 8.10397 24.798 8.46102 24.8737Z" fill="white"/>
<path fill-rule="evenodd" clip-rule="evenodd" d="M13.3365 25.6559L13.5972 25.7745L15.1447 23.8107L14.9082 23.6154L13.3365 25.6559Z" fill="white"/>
<path fill-rule="evenodd" clip-rule="evenodd" d="M22.7816 23.9761C22.9342 24.1973 24.2186 25.9471 24.3106 25.9471C24.552 25.9471 24.3336 25.9665 24.5379 25.8562L22.971 23.7867L22.7816 23.9761Z" fill="white"/>
<path fill-rule="evenodd" clip-rule="evenodd" d="M14.144 26.2628C14.144 26.3661 14.1819 26.4522 14.2704 26.4522C14.4924 26.4522 15.5695 24.5948 15.7237 24.3031L15.4069 24.179C15.3196 24.506 14.144 26.1857 14.144 26.2628Z" fill="white"/>
<path fill-rule="evenodd" clip-rule="evenodd" d="M29.4884 25.7579L28.4873 25.0078L28.3582 25.1806L29.5587 26.018L30.6882 24.937C30.6869 24.936 30.5704 24.8739 30.5619 24.8739C30.4353 24.8739 29.6784 25.6307 29.4884 25.7579Z" fill="white"/>
<path fill-rule="evenodd" clip-rule="evenodd" d="M7.13509 24.937C7.22944 25.0778 8.12727 25.9473 8.2717 25.9473H8.33483C8.46377 25.9473 9.39309 25.2435 9.45883 25.1391L9.34438 24.9991L8.33483 25.7579C8.2022 25.669 7.33203 24.8739 7.32455 24.8739C7.25086 24.8739 7.15003 24.9188 7.13509 24.937Z" fill="white"/>
<path fill-rule="evenodd" clip-rule="evenodd" d="M20.9641 25.1892C20.9641 25.9516 21.5966 26.9065 21.6586 27.6519C22.2343 27.6391 21.7715 26.9397 21.6349 26.4758C21.5274 26.1106 21.2432 25.3818 21.2167 25.0629C21.0941 25.0732 20.9641 25.06 20.9641 25.1892Z" fill="white"/>
<path fill-rule="evenodd" clip-rule="evenodd" d="M22.2078 24.4703L23.4297 26.6545L23.7608 26.5678L22.4575 24.2772L22.2078 24.4703Z" fill="white"/>
<path fill-rule="evenodd" clip-rule="evenodd" d="M14.9358 27.007L15.2281 27.0887L16.2886 24.692L16.0431 24.6233L14.9358 27.007Z" fill="white"/>
<path fill-rule="evenodd" clip-rule="evenodd" d="M29.4981 26.8416L28.1624 25.8841C28.1614 25.8853 28.0993 26.0019 28.0993 26.0103C28.0993 26.1926 29.2885 27.013 29.5096 27.1691L30.9282 25.7704L30.8093 25.6258L29.4981 26.8416Z" fill="white"/>
<path fill-rule="evenodd" clip-rule="evenodd" d="M15.8338 27.5205L16.1648 27.5257C16.2452 27.1806 16.4742 26.4395 16.606 26.1357C16.71 25.8958 16.7385 25.7537 16.8347 25.4803C16.9558 25.136 17.1661 25.011 16.6881 25.0061L15.8338 27.5205Z" fill="white"/>
<path fill-rule="evenodd" clip-rule="evenodd" d="M21.5955 24.8735C21.5955 24.9594 22.5545 27.2098 22.6689 27.2098C22.7723 27.2098 22.8584 27.1721 22.8584 27.0836C22.8584 26.9358 21.8724 24.7472 21.7849 24.7472C21.6816 24.7472 21.5955 24.785 21.5955 24.8735Z" fill="white"/>
<path fill-rule="evenodd" clip-rule="evenodd" d="M6.87359 25.8135C6.96192 25.9392 8.21467 27.084 8.27192 27.084C8.53374 27.084 9.66162 26.1983 9.77477 26.0231L9.64676 25.8645L8.32543 26.8418L7.01819 25.6392L6.87359 25.8135Z" fill="white"/>
<path fill-rule="evenodd" clip-rule="evenodd" d="M6.8905 26.9033C7.01476 27.091 7.39414 27.4722 7.60271 27.6266C8.07494 27.9764 7.86286 27.9329 8.46153 28.2201C8.57216 28.1461 9.72442 27.2405 9.72442 27.2098C9.72442 26.9684 9.74377 27.1869 9.6437 26.9957L8.32149 27.9192L7.06477 26.7587L6.8905 26.9033Z" fill="white"/>
<path fill-rule="evenodd" clip-rule="evenodd" d="M29.4885 27.9043C29.4125 27.9043 28.3859 27.1276 28.218 27.011L28.0171 27.1712L29.499 28.2948L30.9543 26.9435L30.7514 26.7676C30.5869 26.8778 29.5334 27.9043 29.4885 27.9043Z" fill="white"/>
<path fill-rule="evenodd" clip-rule="evenodd" d="M6.7472 28.0235L8.14554 29.2729L8.50384 29.2668L9.80082 28.2701L9.59435 28.0895L8.32159 28.9948L6.89181 27.8493L6.7472 28.0235Z" fill="white"/>
<path fill-rule="evenodd" clip-rule="evenodd" d="M29.4844 29.0363L28.1624 28.094C28.1614 28.0952 28.0993 28.2117 28.0993 28.2203C28.0993 28.4103 29.4077 29.3569 29.5516 29.3569C29.6264 29.3569 30.973 28.1714 31.0762 28.0232L30.9248 27.8225L29.4844 29.0363Z" fill="white"/>
<path fill-rule="evenodd" clip-rule="evenodd" d="M6.69324 28.915L8.20871 30.2139L8.44884 30.2245L9.77973 29.1767L9.58134 29.0194L8.33497 29.9253C8.17924 29.821 6.99221 28.7887 6.94583 28.7887C6.84343 28.7887 6.74491 28.8644 6.69324 28.915Z" fill="white"/>
<path fill-rule="evenodd" clip-rule="evenodd" d="M29.4883 29.9253L28.2177 29.0321L28.0179 29.1917L29.4883 30.3041C29.7844 30.1058 30.9868 29.1517 31.0669 28.8519C31.0656 28.8508 30.9491 28.7887 30.9406 28.7887C30.8367 28.7887 29.6796 29.7971 29.4883 29.9253Z" fill="white"/>
<path fill-rule="evenodd" clip-rule="evenodd" d="M29.4935 30.8156C29.2568 30.6868 28.0993 29.6983 28.0993 30.0517C28.0993 30.2564 29.2742 31.0448 29.5067 31.2104L31.0762 29.8546L30.9278 29.6567L29.4935 30.8156Z" fill="white"/>
<path fill-rule="evenodd" clip-rule="evenodd" d="M6.7472 29.8547L8.14554 31.1041L8.50466 31.0992L9.81542 30.1563L9.59763 29.9251L8.31374 30.8352L6.89181 29.6805L6.7472 29.8547Z" fill="white"/>
<path fill-rule="evenodd" clip-rule="evenodd" d="M19.638 32.2618C19.716 32.3783 19.8218 32.5143 20.0169 32.5143C20.2346 32.5143 20.2614 32.4677 20.4589 32.4512C20.5166 32.4126 20.6483 32.3484 20.6483 32.2618C20.6483 32.0282 20.3252 31.8829 20.08 31.8829C19.8461 31.8829 19.7948 31.9445 19.7011 32.0723C19.8427 32.0394 19.8463 32.0092 20.0169 32.0092H20.2063C20.3768 32.0092 20.3804 32.0394 20.5349 32.0756L20.4589 32.3881H19.9537C19.6754 32.3881 19.8816 32.2508 19.638 32.0723V32.2618Z" fill="white"/>
<path fill-rule="evenodd" clip-rule="evenodd" d="M14.0824 39.9659C15.1483 40.2136 16.6359 40.7229 17.9332 40.7229H19.764C20.6059 40.7229 21.0733 40.5239 21.8476 40.4699C22.4299 40.4294 23.1841 40.0064 23.656 39.9789L25.1945 42.6171C23.8652 43.2554 21.0059 43.8169 19.0065 43.8169H18.8803C17.7243 43.8169 16.4887 43.6759 15.5085 43.4633C14.9558 43.3435 14.5675 43.2268 14.0432 43.0972C13.5093 42.9653 13.0269 42.7097 12.5962 42.5985L14.0824 39.9659ZM17.2133 32.0871C17.6151 32.3544 18.0411 32.5369 18.4798 32.6608C18.9299 32.788 19.394 32.8545 19.8606 32.888C20.1001 32.8 20.3872 32.7196 20.4589 32.4511C20.5166 32.4123 20.6482 32.3483 20.6482 32.2614C20.6482 32.0276 20.3251 31.8827 20.08 31.8827C19.8459 31.8827 19.7947 31.9442 19.7011 32.0721C19.8428 32.0391 19.8464 32.009 20.0167 32.009H20.2064C20.3765 32.009 20.3805 32.0391 20.5348 32.0752L20.4589 32.3878H19.954C19.6753 32.3878 19.8814 32.2508 19.6379 32.0721V32.2614L19.5654 32.1387C18.4854 32.135 17.8775 31.7423 17.2383 31.3142C17.2125 31.6244 17.1122 31.5455 17.1122 31.8196V31.8827C17.1122 32.0135 17.1431 32.0129 17.2133 32.0871ZM19.6852 32.9632C19.2704 32.926 18.8581 32.8601 18.4558 32.7464C17.9993 32.6174 17.5702 32.4259 17.193 32.1802L17.2564 32.8909L17.4234 32.8182C17.603 33.0914 18.346 33.6509 18.7543 33.6509H19.954C20.1339 33.6509 20.0689 33.6307 20.143 33.5246C19.8589 33.5246 19.5115 33.4789 19.5115 33.2085C19.5115 33.0909 19.582 33.0189 19.6852 32.9632ZM17.0492 30.5567C17.0492 30.4256 17.2336 30.2408 17.3018 30.2408C17.3768 30.2408 18.1828 30.675 18.4516 30.7326C18.9418 30.8374 19.301 30.9353 19.8905 30.9353C19.7532 31.1231 19.4485 31.0951 19.4485 31.3775C19.4485 31.4453 19.6332 31.6302 19.764 31.6302H20.0167C20.246 31.6302 20.2383 31.555 20.4589 31.5039L20.6307 31.8911L20.5957 31.9561L20.4717 31.8069C19.5056 31.8196 19.1316 31.8906 18.4001 31.6048C18.156 31.5097 17.8048 31.3807 17.6324 31.2359C17.3671 31.0134 17.3685 30.7961 17.0492 30.8725V30.5567ZM6.88256 31.2515L8.46518 32.3921L9.78757 31.3775C9.88992 31.5912 10.014 32.1766 10.1351 32.4822C10.2829 32.8543 10.4144 33.148 10.565 33.5044C10.8079 34.0776 11.2919 34.9379 11.6658 35.3718C12.1197 35.8995 12.4095 36.4999 12.9286 37.0133C13.0958 37.1787 14.3971 38.4361 14.3971 38.5127C14.3971 38.5689 12.9733 40.9985 12.8184 41.291C12.3377 41.0368 11.1607 39.8494 10.719 39.4128C10.2543 38.9533 9.30837 37.7535 8.9969 37.1568C8.6502 36.4936 7.86647 35.1901 7.70757 34.4676C7.60206 33.9869 7.35571 33.5365 7.23556 32.919C7.13018 32.378 6.88256 31.7864 6.88256 31.2515ZM25.0682 41.2282L23.4268 38.5127C23.5748 38.2916 24.5711 37.2705 24.8312 37.0123C25.3012 36.5459 25.7904 35.9472 26.1671 35.3807C26.9065 34.2688 27.6944 32.8444 28.0362 31.3775C28.3484 31.461 29.1856 32.3248 29.3622 32.3248C29.5354 32.3248 30.608 31.3402 30.9407 31.2515C30.9253 31.96 30.3764 33.7336 30.1597 34.3853C29.825 35.392 29.3463 36.2386 28.8591 37.0624C27.9908 38.5298 26.4537 40.3003 25.0682 41.2282ZM16.6596 28.4203C16.6583 28.3981 17.0092 28.1824 17.0608 28.1686C17.2741 28.1135 17.4344 28.0942 17.6805 28.0942H20.143C20.2848 28.0942 20.2815 28.1441 20.3957 28.2205C21.787 28.2205 23.6499 29.7562 24.1634 30.6409C24.7834 31.7096 24.7562 31.4093 25.0526 32.8457C25.2645 33.8731 25.2602 34.5414 25.7629 35.2923C25.4615 35.7429 24.8012 36.6055 24.4214 36.9817C24.1757 37.2247 22.9847 38.2955 22.9847 38.5762C22.9847 38.5954 23.5611 39.4444 23.6157 39.6496C23.3045 39.6756 23.1182 39.8388 22.6688 39.8388C21.7939 39.8388 22.6996 34.5346 22.1007 34.5346H21.7848C21.2766 34.5346 20.7775 34.7871 20.2692 34.7871H19.6379C18.7376 34.7871 17.3091 33.9919 17.2383 33.1456C17.6703 33.4347 18.2217 33.9663 18.9433 33.9663H19.5115C19.5182 34.2632 19.6015 34.3454 19.8905 34.3454H20.08C20.211 34.3454 20.3957 34.1606 20.3957 34.0927C20.3957 33.941 20.2932 33.9071 20.2064 33.7773C20.4458 33.757 20.585 33.4915 20.585 33.335V33.272C20.585 33.0796 20.5564 33.0409 20.545 32.903L20.7746 32.2614C20.8288 32.2977 21.7848 33.2705 21.7848 32.8299C21.7848 32.7505 21.0725 32.0962 20.8998 31.7576C20.6434 31.2531 20.6006 30.8971 20.1991 30.5008C19.6422 29.9513 20.2165 29.8425 19.1172 29.6252C18.5304 29.5087 17.9656 29.419 17.4281 29.2939C17.4911 29.239 17.7435 29.0591 17.7435 28.9782C17.7435 28.6183 17.4115 28.3466 17.0492 28.3466C16.843 28.3466 16.8411 28.3791 16.7227 28.4831L16.6596 28.4203ZM16.4174 28.4097C16.4174 28.9578 16.5265 29.134 16.8205 29.3682L17.0492 30.0518C16.9205 30.1378 16.7333 30.2842 16.7333 30.4935C16.7333 30.8655 16.9229 31.0099 16.9229 31.3142C16.9229 31.5903 16.7964 31.5435 16.7964 31.8196V31.9458C16.7964 32.04 16.8986 32.5481 16.9222 32.8934C16.9418 33.1814 17.0416 33.5098 17.1523 33.7367C17.4046 34.2514 18.2489 34.6669 18.2489 34.8506V35.6081C18.2489 35.8484 17.9994 35.7732 17.7543 35.9343C17.5663 36.0583 17.4375 36.1815 17.285 36.3489C17.055 36.6015 16.7964 37.1006 16.7964 37.5655V37.6288C16.7964 38.6359 17.536 39.5862 18.5015 39.5862H19.1329C19.8331 39.5862 20.7112 38.6485 20.7112 37.8816V37.4391C20.7112 36.8062 20.2527 36.2124 19.8275 35.987C19.6646 35.901 19.2591 35.805 19.2591 35.6081V35.04H20.2692L21.9743 34.8506V37.8816C21.9743 38.3784 22.0485 38.6806 22.0943 39.087C22.146 39.5446 22.4126 39.9641 22.2225 40.018C21.7465 40.1538 20.3966 40.3439 19.8275 40.3439H18.1226C16.8252 40.3439 15.3645 39.9045 14.2707 39.6496C14.3047 39.2406 14.8388 38.7004 14.8388 38.4498C14.8388 38.438 13.4711 37.0236 13.3062 36.8253C12.786 36.199 12.3745 35.7683 11.9092 35.0652C11.4158 34.3198 11.1776 33.8942 10.7766 33.0404C10.5959 32.6563 10.1162 30.8818 9.89384 30.7215L8.45862 31.8863L6.69136 30.6163L6.44072 30.746C6.44072 32.4116 7.86406 36.2172 8.57549 37.1987C9.152 37.9931 9.75261 38.9577 10.4337 39.6342C10.6489 39.8476 12.6291 41.7013 12.6291 41.7332C12.6291 41.8331 12.1254 42.5641 12.0604 42.8068C12.4819 42.9048 13.1765 43.2131 13.5894 43.3614C14.1125 43.5491 14.6585 43.6622 15.2577 43.7775C16.5231 44.0205 17.564 44.1958 19.0695 44.1958C21.2726 44.1958 24.2869 43.515 25.8037 42.7814L25.1316 41.7332C25.2464 41.562 27.0035 40.0152 27.3576 39.6655C28.1507 38.8813 28.5695 38.1472 29.1975 37.2118C29.9877 36.0343 31.3829 32.6236 31.3829 30.746C31.3829 30.6009 31.3388 30.5567 31.1932 30.5567C31.1399 30.5567 29.5697 31.7435 29.3622 31.8827C29.0717 31.7289 28.1269 30.809 27.9728 30.809C27.6429 30.809 27.6129 31.5344 27.5047 31.8559C27.3763 32.2365 27.2406 32.64 27.0984 32.9655C26.8805 33.4628 26.0856 34.7149 26.0153 34.9769C25.4955 34.838 25.3897 32.6182 25.2043 31.9992C24.9045 30.9985 24.3469 30.3727 23.6947 29.7202C23.0502 29.0749 22.3321 28.5881 21.492 28.1342C21.0537 27.8968 21.1154 28.2374 20.9881 27.6911C20.9225 27.4089 20.8916 27.1807 20.8242 26.9078C20.705 26.427 20.6398 25.8216 20.5219 25.3156L20.1808 25.321L20.7112 27.9045C20.0495 27.9045 20.0633 27.9031 19.9782 27.3748C19.9157 26.9873 19.8905 26.6113 19.8905 26.1998V25.8208C19.8905 25.0583 20.4589 25.4542 20.4589 24.8107V24.7476C20.4589 24.5295 20.4121 24.5029 20.3957 24.3052C21.4547 24.2172 21.3427 22.6393 21.3427 21.4637C21.6118 21.0622 22.416 20.1014 22.416 19.5062V18.433C22.416 17.7646 22.0645 16.5578 21.6569 16.2826L21.4298 16.4149L21.3455 17.1148L21.28 17.1068C21.28 16.5025 20.6337 15.023 20.2692 15.023H20.2064C19.9205 15.023 20.0289 15.6467 19.954 15.9704H19.8275C19.7592 15.1528 19.0748 14.4746 18.1854 14.4547C18.2819 14.6364 18.5015 15.0248 18.5015 15.2756C18.5015 15.6513 18.3611 16.43 18.2489 16.6648C17.8254 16.5517 17.7435 15.6341 17.7435 15.0862H17.4909C17.2877 15.0862 17.1253 15.8195 17.0492 15.9704C16.9133 16.2385 16.7333 16.6416 16.7333 17.044C16.3847 16.8106 16.3534 16.2862 16.102 16.2862H16.0386C15.7219 16.2862 15.3443 18.1122 15.3443 18.6854V19.38C15.3443 20.0803 15.8523 21.1489 16.2282 21.4007C16.0672 21.736 16.1497 22.8612 16.2402 23.2195C16.4141 23.9045 16.535 24.0631 17.1122 24.3687C17.1122 25.1068 17.0676 24.872 17.3447 25.3113L16.9229 27.2098C16.9125 27.6695 16.5354 27.9256 17.1051 27.9383L17.5871 25.6386L17.6805 25.6313C17.6974 26.3882 17.9141 26.7142 17.8097 27.5919C17.7663 27.9599 17.4123 27.8344 17.039 27.9577C16.7269 28.0606 16.6005 28.1994 16.4174 28.4097ZM20.08 24.7476C20.08 24.8931 20.0359 24.9366 19.8905 24.9366H17.6805C17.5351 24.9366 17.4909 24.8931 17.4909 24.7476V24.6211C17.4909 24.4758 17.5351 24.4313 17.6805 24.4313H19.8905C20.0359 24.4313 20.08 24.4758 20.08 24.6211V24.7476ZM20.9639 22.7268C20.9639 23.4016 20.6379 24.0527 20.0167 24.0527H17.5543C16.8686 24.0527 16.5588 23.4025 16.5438 22.7268H20.9639ZM16.5438 21.8429H20.9639V22.3479H16.5438V21.8429ZM21.5324 20.6431L21.0899 21.1482V21.2112L20.8375 21.4637H18.1226C17.8135 21.2567 17.4391 20.7083 17.4281 20.2009H17.0492V20.4533C17.0492 20.7121 17.4302 21.2785 17.5543 21.4637H16.7964C16.4413 21.2262 15.723 20.2074 15.723 19.6326V18.2437C15.723 17.8311 15.9383 17.0832 16.1649 16.9175L16.6052 17.7694L16.5438 17.8014H16.7964C17.1238 17.8014 17.0307 16.3705 17.4909 16.0334L18.0693 17.6716C18.5497 17.3158 18.8803 16.0428 18.8803 15.1493C19.854 15.6646 19.3507 17.2965 19.764 17.2965H20.0167L20.3643 15.7255L20.4589 15.7179C20.4796 15.9702 20.7677 16.2692 20.8659 16.6997C20.9538 17.0846 20.901 17.5754 20.901 17.9909L21.2757 18.1281L21.6911 17.1829L21.7848 17.17C21.851 17.4542 22.1007 18.3074 22.1007 18.4961V18.9381C22.1007 19.5613 21.7569 20.2188 21.5324 20.6431Z" fill="white"/>
<path fill-rule="evenodd" clip-rule="evenodd" d="M25.6857 7.00175L25.6998 7.63529C25.6998 9.07191 26.0767 10.2209 26.7218 11.0333C27.1248 11.5407 27.2543 11.7585 27.8198 12.1455C28.0368 12.294 29.2001 12.75 29.4884 12.75H30.2461C30.9622 12.75 31.4762 12.5477 32.0639 12.4209C32.3972 12.349 33.4987 11.7397 33.5928 11.7397C33.6301 11.7397 34.8062 12.6024 34.9567 12.7121C35.1448 12.8489 36.308 13.574 36.308 13.6972C36.308 13.7218 35.6327 15.244 35.5409 15.4558C35.2634 16.0958 35.106 16.668 35.0454 17.5492C34.9305 19.2178 35.1097 20.817 35.1083 22.4742C35.1054 25.8048 35.3608 29.0195 35.3608 32.4511V32.5773C35.3608 34.5594 34.3254 37.4009 33.5555 38.6651C32.609 40.2192 31.1325 41.6425 29.601 42.6036C27.8084 43.7286 26.3102 44.2902 24.1419 45.0375C22.2807 45.679 19.9142 46.3453 18.9433 47.7951C18.5777 47.5503 18.3287 47.1303 17.9208 46.8601C17.4904 46.5749 17.1425 46.3471 16.6331 46.1272C16.1951 45.9382 15.6681 45.7567 15.2467 45.5562C14.7654 45.3273 14.2477 45.242 13.7399 45.0424C12.7416 44.6501 11.8088 44.3731 10.8238 43.9804C9.90537 43.6142 8.94245 43.1106 8.17083 42.5921C6.8135 41.68 4.95417 40.0645 4.25137 38.5554C4.07326 38.1729 3.79518 37.7119 3.57703 37.2723C3.33011 36.7748 3.23761 36.3355 3.05076 35.7779C2.88157 35.273 2.74641 34.6783 2.66635 34.1416C2.61593 33.8033 2.39949 32.6142 2.39949 32.3879L2.41344 31.9463L2.84149 17.7384C2.88911 16.3273 1.51547 13.9754 1.51547 13.6972C1.51547 13.6118 2.69395 12.8306 2.86781 12.7132C3.02262 12.6085 4.1911 11.7397 4.23068 11.7397C4.42382 11.7397 6.18537 12.75 7.2616 12.75H8.14563C9.26342 12.75 10.4594 11.8837 11.0052 11.2527C11.5667 10.6035 12.1237 9.16136 12.1237 7.95102V6.43556C12.2515 6.40146 15.1735 4.40686 15.4811 4.17308C15.7385 3.97749 18.8794 1.88915 18.8802 1.88915C19.0465 1.88915 21.8579 3.85531 22.3243 4.12804C22.9022 4.46594 25.3887 6.34837 25.7705 6.43671L25.6857 7.00175ZM26.9371 5.99154C26.7921 5.73888 18.9428 0.5 18.8802 0.5C18.8383 0.5 11.5907 5.44167 10.8608 5.93043L11.0124 7.44338L10.9871 8.20361C10.9871 9.96695 9.64769 11.6134 7.76674 11.6134H7.2616C6.09724 11.6134 4.43234 10.4136 4.23068 10.4136C4.12668 10.4136 0.124288 13.1958 0 13.3814C0.802936 14.5805 1.70488 16.4424 1.70488 18.433V19.1907L1.32202 31.2512L1.32603 32.1985C1.32603 37.3789 4.2968 41.5061 7.51333 43.5022C9.32739 44.6279 11.2842 45.464 13.5639 46.1656C14.7674 46.5359 15.6537 47.013 16.6854 47.4009C17.6853 47.7768 18.2767 49.0536 18.9433 49.5C19.2886 48.9843 20.5994 47.6391 21.1902 47.39C22.1501 46.9853 23.2107 46.4095 24.2975 46.1403C26.3295 45.6369 28.7922 44.5201 30.3472 43.4761C32.1441 42.2698 33.5574 40.9729 34.6244 39.0394C35.5777 37.3118 36.4974 34.839 36.4974 32.1985V31.9459L36.1247 19.6957L36.1186 18.3067C36.1186 16.4911 37.0894 14.4776 37.8235 13.3814C37.7009 13.1985 33.6843 10.4136 33.5928 10.4136C33.4677 10.4136 31.7418 11.6134 30.1199 11.6134H30.0567L29.1734 11.5427C28.8945 11.364 28.5206 11.2455 28.1865 11.021C27.862 10.803 27.7353 10.5321 27.5142 10.241C27.1777 9.79789 26.8364 8.71771 26.8364 7.95102L26.8136 7.57039L26.9371 5.99154Z" fill="white"/>
<path fill-rule="evenodd" clip-rule="evenodd" d="M6.56074 17.9442C6.64238 17.913 6.72468 17.8806 6.80698 17.8488C6.82071 17.9371 6.84159 17.9923 6.86796 18.0153C6.91225 18.0538 6.9853 18.0564 7.08739 18.0229C7.17273 17.9949 7.23204 17.9565 7.26572 17.909C7.29968 17.8614 7.31384 17.8138 7.30777 17.7648C7.30249 17.7217 7.28313 17.6911 7.2491 17.6719C7.22461 17.6582 7.16052 17.6439 7.05698 17.6286C6.95416 17.6135 6.87743 17.596 6.82909 17.5791C6.77995 17.5617 6.73993 17.5333 6.70792 17.4907C6.67584 17.4481 6.6564 17.3926 6.64846 17.3247C6.63444 17.2046 6.66161 17.0927 6.72923 16.9864C6.79628 16.881 6.9033 16.8031 7.04932 16.7518C7.19736 16.6997 7.31521 16.6968 7.40611 16.7473C7.4957 16.7972 7.55235 16.8872 7.57518 17.0163C7.49288 17.0506 7.41059 17.0837 7.32908 17.1174C7.31536 17.0506 7.28696 17.0051 7.24519 16.982C7.20315 16.9588 7.14658 16.9591 7.07381 16.9845C7.00272 17.0092 6.95264 17.0426 6.92584 17.0818C6.89874 17.1214 6.88725 17.1619 6.89232 17.2052C6.89708 17.2463 6.91536 17.275 6.94643 17.2923C6.97772 17.3098 7.0439 17.3271 7.14606 17.3413C7.29903 17.3626 7.39816 17.3887 7.44252 17.4189C7.50943 17.4642 7.55047 17.5383 7.56232 17.6414C7.57699 17.7685 7.54591 17.8929 7.46781 18.0134C7.39057 18.1326 7.27194 18.2185 7.11413 18.2703C7.00604 18.3056 6.90907 18.3161 6.82454 18.3002C6.73993 18.2843 6.67671 18.2448 6.63545 18.1819C6.59455 18.1196 6.56919 18.0408 6.56074 17.9442ZM7.7535 18.0325C7.76803 17.7755 7.78457 17.5181 7.79931 17.2618C7.81413 17.0043 7.83052 16.7467 7.84577 16.4885C8.15523 16.3734 8.46541 16.2564 8.77401 16.1375C8.76873 16.2252 8.76491 16.313 8.76042 16.4002C8.53623 16.486 8.31224 16.5699 8.08883 16.6519C8.08124 16.7695 8.07445 16.8872 8.06831 17.0048C8.28398 16.926 8.50205 16.8466 8.71772 16.7658C8.71231 16.8535 8.70855 16.9413 8.7032 17.0278C8.48681 17.1079 8.27033 17.1861 8.05242 17.2637C8.04165 17.4055 8.03096 17.5466 8.02033 17.6878C8.26491 17.6026 8.50884 17.5155 8.7527 17.4277C8.74742 17.5155 8.74208 17.6026 8.73752 17.6903C8.40978 17.8061 8.08124 17.9205 7.7535 18.0325ZM9.19178 17.5269C9.10479 17.5581 9.01873 17.5892 8.93268 17.6205C8.94706 17.3572 8.96129 17.0945 8.97531 16.8325C8.98932 16.5694 9.00349 16.3066 9.01874 16.0427C9.20313 15.9702 9.38773 15.8966 9.57278 15.8228C9.66807 15.7848 9.74351 15.7662 9.79922 15.768C9.8555 15.7699 9.90369 15.796 9.94394 15.8456C9.98361 15.8945 10.0092 15.9645 10.0202 16.0542C10.0358 16.1818 10.0166 16.3006 9.96302 16.4083C9.90926 16.5166 9.81902 16.6055 9.6917 16.6754C9.72978 16.6978 9.76627 16.733 9.80146 16.7791C9.87443 16.8747 9.95774 17.0163 10.0545 17.2046C9.96222 17.2395 9.86923 17.2739 9.7779 17.3088C9.74502 17.2325 9.68484 17.1173 9.59879 16.9629C9.55233 16.8796 9.50731 16.8293 9.46237 16.8116C9.4365 16.8014 9.39229 16.808 9.33195 16.8313C9.2964 16.8449 9.26107 16.8572 9.22596 16.8713C9.21382 17.0901 9.20313 17.3082 9.19178 17.5269ZM9.23896 16.6329C9.28463 16.6157 9.32993 16.5983 9.37538 16.5807C9.51425 16.5271 9.60399 16.4813 9.64676 16.444C9.6899 16.4063 9.72147 16.362 9.74199 16.3098C9.76258 16.2577 9.7693 16.2087 9.76411 16.1616C9.75803 16.1071 9.73433 16.0738 9.69394 16.0612C9.66974 16.0536 9.6201 16.0657 9.54467 16.0955C9.44951 16.133 9.35486 16.17 9.26107 16.2062C9.25349 16.3487 9.2459 16.4904 9.23896 16.6329ZM10.8174 16.907C10.7259 16.9432 10.6344 16.9788 10.5423 17.015C10.4744 16.7766 10.4061 16.5386 10.3387 16.3016C10.2713 16.065 10.203 15.8291 10.1361 15.5932C10.2213 15.5575 10.3068 15.5232 10.3913 15.487C10.4897 15.8462 10.5895 16.2075 10.6886 16.5687C10.7503 16.3422 10.8144 16.1151 10.8761 15.8875C10.9377 15.6599 11.0011 15.4317 11.0635 15.2015C11.1482 15.1659 11.232 15.1289 11.3165 15.092C11.2335 15.3967 11.1515 15.701 11.0682 16.004C10.9854 16.3056 10.9012 16.6067 10.8174 16.907ZM11.3449 16.6946C11.3569 16.4211 11.3689 16.1463 11.3806 15.8724C11.3923 15.5984 11.4043 15.3235 11.4172 15.0481C11.5019 15.0119 11.5864 14.9744 11.6709 14.9363C11.6588 15.2122 11.6481 15.4883 11.6368 15.7642C11.6254 16.039 11.613 16.3148 11.6017 16.5896C11.5155 16.6252 11.4309 16.6609 11.3449 16.6946ZM12.6686 15.5443C12.7563 15.5225 12.8432 15.5003 12.9316 15.4787C12.9034 15.6784 12.8449 15.8466 12.7563 15.9836C12.6675 16.1206 12.5557 16.2182 12.421 16.2755C12.2693 16.3401 12.1433 16.3328 12.0436 16.2545C11.9439 16.1763 11.8807 16.028 11.854 15.8125C11.832 15.6357 11.8413 15.4628 11.8806 15.2917C11.9197 15.1208 11.9847 14.9727 12.0757 14.8503C12.1675 14.7268 12.2733 14.6382 12.3928 14.5839C12.5263 14.5232 12.6397 14.5185 12.7326 14.5706C12.827 14.6235 12.8912 14.7258 12.9247 14.8758C12.8454 14.9235 12.7654 14.9706 12.6854 15.017C12.6603 14.9318 12.6264 14.8775 12.5826 14.8542C12.539 14.8312 12.4849 14.8329 12.421 14.8625C12.3516 14.8946 12.2881 14.9508 12.2342 15.0315C12.18 15.1128 12.1416 15.2186 12.1191 15.3496C12.0968 15.4792 12.0921 15.6016 12.1061 15.7146C12.1217 15.8393 12.157 15.9255 12.2136 15.9734C12.2697 16.0208 12.3337 16.0294 12.4042 15.9988C12.47 15.9703 12.5268 15.9159 12.5756 15.8379C12.6242 15.7603 12.6558 15.6619 12.6686 15.5443ZM13.0909 15.955C13.1008 15.6726 13.1107 15.3901 13.1206 15.1073C13.1304 14.8243 13.1412 14.542 13.1519 14.2583C13.4559 14.1141 13.76 13.9678 14.0633 13.819C14.0603 13.9155 14.0573 14.0122 14.0542 14.1083C13.8347 14.2145 13.6153 14.3194 13.3957 14.423C13.3912 14.5521 13.3858 14.6813 13.3821 14.8103C13.5938 14.7117 13.8065 14.612 14.0191 14.5102C14.0154 14.6061 14.0131 14.7028 14.0101 14.7982C13.7974 14.898 13.5847 14.9979 13.3721 15.0952C13.3638 15.251 13.356 15.4055 13.3477 15.5607C13.5878 15.4532 13.8271 15.3432 14.0672 15.232C14.0633 15.3279 14.0595 15.424 14.0573 15.5206C13.7357 15.6675 13.414 15.8125 13.0909 15.955Z" fill="white"/>
<path fill-rule="evenodd" clip-rule="evenodd" d="M14.8129 11.2192C15.0059 11.1856 15.1996 11.1521 15.3933 11.1198C15.5086 11.1007 15.5946 11.0923 15.6507 11.0936C15.7074 11.095 15.7577 11.1087 15.8026 11.1355C15.8469 11.1619 15.884 11.2009 15.9137 11.2523C15.9433 11.3035 15.958 11.3642 15.958 11.4335C15.958 11.5088 15.9399 11.5811 15.9037 11.6493C15.8674 11.7176 15.8169 11.7721 15.7542 11.8128C15.8428 11.8281 15.9113 11.8667 15.958 11.9281C16.0055 11.9906 16.0298 12.068 16.0298 12.1611C16.0298 12.2341 16.0148 12.3077 15.9839 12.381C15.9529 12.4543 15.911 12.5153 15.8578 12.564C15.805 12.6122 15.7393 12.6476 15.6615 12.6679C15.6124 12.6807 15.4944 12.7017 15.3074 12.7296C15.142 12.7543 14.9775 12.7779 14.8129 12.802C14.8129 12.5382 14.8129 12.2745 14.8129 12.0105C14.8129 11.7467 14.8129 11.4829 14.8129 11.2192ZM15.1069 11.4331C15.1069 11.5557 15.1069 11.6783 15.1069 11.8006C15.1704 11.7903 15.2338 11.7803 15.2982 11.7699C15.4126 11.7516 15.4836 11.739 15.512 11.7309C15.5612 11.7169 15.6012 11.6912 15.6297 11.6554C15.6587 11.6191 15.6732 11.5751 15.6732 11.5233C15.6732 11.4737 15.6612 11.4347 15.6364 11.4081C15.6112 11.3809 15.5737 11.3683 15.5253 11.3698C15.4961 11.3708 15.4126 11.3826 15.2748 11.4052C15.2188 11.4144 15.1629 11.4236 15.1069 11.4331ZM15.1069 12.0655C15.1069 12.1363 15.1069 12.2071 15.1069 12.2781C15.1069 12.3489 15.1069 12.4197 15.1069 12.4907C15.1971 12.4772 15.2873 12.4635 15.3776 12.4502C15.4834 12.4345 15.5502 12.4207 15.5789 12.4106C15.6219 12.395 15.6585 12.3692 15.6857 12.3312C15.7126 12.2938 15.7266 12.2458 15.7266 12.189C15.7266 12.141 15.716 12.1016 15.6948 12.0712C15.6735 12.0408 15.643 12.0207 15.6031 12.0116C15.5637 12.0026 15.4768 12.0077 15.3433 12.0285C15.264 12.0408 15.1855 12.053 15.1069 12.0655ZM16.2771 12.595C16.2771 12.3261 16.2771 12.0568 16.2771 11.7877C16.2771 11.5187 16.2771 11.2494 16.2771 10.9804C16.6353 10.9305 16.9945 10.885 17.3537 10.846C17.3537 10.9381 17.3537 11.03 17.3537 11.122C17.0922 11.1495 16.8308 11.1799 16.5702 11.2132C16.5702 11.3331 16.5702 11.4528 16.5702 11.5724C16.8133 11.5419 17.0564 11.514 17.2995 11.4882C17.2995 11.5797 17.2995 11.6713 17.2995 11.7626C17.0564 11.7877 16.8133 11.815 16.5702 11.8447C16.5702 11.9184 16.5702 11.9921 16.5702 12.0655C16.5702 12.1388 16.5702 12.2124 16.5702 12.2857C16.8401 12.2542 17.1107 12.2248 17.3812 12.199C17.3812 12.2905 17.3812 12.3823 17.3812 12.4738C17.013 12.5088 16.6446 12.5499 16.2771 12.595ZM17.6326 12.4528C17.6326 12.1809 17.6326 11.9086 17.6326 11.6364C17.6326 11.3644 17.6326 11.0922 17.6326 10.8201C17.9643 10.7953 18.2958 10.777 18.6283 10.7671C18.6283 10.8597 18.6283 10.952 18.6283 11.0444C18.3935 11.0507 18.1596 11.0609 17.9258 11.0744C17.9258 11.2033 17.9258 11.3325 17.9258 11.4612C18.128 11.4496 18.33 11.4403 18.5322 11.434C18.5322 11.5265 18.5322 11.6191 18.5322 11.7112C18.33 11.7173 18.128 11.7264 17.9258 11.7381C17.9258 11.8538 17.9258 11.9697 17.9258 12.0856C17.9258 12.2012 17.9258 12.317 17.9258 12.4327C17.8281 12.4387 17.7305 12.4455 17.6326 12.4528ZM18.8104 11.5947C18.8104 11.4275 18.8316 11.2869 18.8762 11.1741C18.909 11.0912 18.9546 11.0165 19.0116 10.951C19.0689 10.8854 19.1313 10.838 19.1996 10.8075C19.2898 10.7671 19.3943 10.7481 19.5127 10.7542C19.7266 10.7651 19.898 10.8511 20.0264 11.0111C20.09 11.0904 20.1384 11.1838 20.1701 11.2906C20.2018 11.3975 20.2186 11.5176 20.2186 11.6508C20.2186 11.7829 20.2018 11.8994 20.1701 11.9997C20.1384 12.1001 20.0908 12.1859 20.0272 12.2557C19.9004 12.3947 19.7299 12.4576 19.5161 12.4478C19.3007 12.4379 19.1284 12.3603 19.0008 12.21C18.9373 12.1351 18.8898 12.046 18.858 11.9433C18.8264 11.841 18.8104 11.725 18.8104 11.5947ZM19.1119 11.5861C19.1119 11.7714 19.1501 11.9134 19.2262 12.0114C19.302 12.109 19.3983 12.1603 19.5153 12.1655C19.6321 12.1708 19.7285 12.1293 19.8033 12.0384C19.8403 11.9934 19.8685 11.9355 19.8869 11.8655C19.9051 11.7959 19.9153 11.7135 19.9153 11.6186C19.9153 11.4312 19.8785 11.2885 19.8059 11.1915C19.7333 11.0948 19.6364 11.0426 19.5153 11.0368C19.3943 11.0311 19.2969 11.0749 19.2229 11.1663C19.1492 11.2574 19.1119 11.3973 19.1119 11.5861ZM20.4483 12.4873C20.4483 12.2149 20.4483 11.9422 20.4483 11.6696C20.4483 11.3971 20.4483 11.1245 20.4483 10.852C20.6538 10.874 20.8593 10.8974 21.0654 10.9241C21.2208 10.9442 21.3337 10.9755 21.4037 11.0146C21.4738 11.0536 21.531 11.114 21.5733 11.195C21.6153 11.2756 21.6359 11.3639 21.6359 11.46C21.6359 11.5815 21.604 11.6775 21.5398 11.7479C21.4762 11.8177 21.3803 11.855 21.2526 11.8583C21.316 11.9084 21.3684 11.9611 21.4096 12.0161C21.451 12.0713 21.5063 12.167 21.5766 12.3024C21.6355 12.416 21.6952 12.5296 21.7545 12.6431C21.6376 12.627 21.5207 12.6119 21.4037 12.5962C21.3327 12.4691 21.2618 12.3418 21.1916 12.2147C21.1167 12.0788 21.0645 11.9928 21.037 11.9564C21.0095 11.9201 20.9803 11.8936 20.9485 11.8772C20.9178 11.8614 20.8683 11.8497 20.8006 11.8421C20.7807 11.84 20.7614 11.8378 20.7422 11.8356C20.7422 11.9493 20.7422 12.0629 20.7422 12.1765C20.7422 12.2901 20.7422 12.4038 20.7422 12.5173C20.6436 12.5067 20.546 12.497 20.4483 12.4873ZM20.7422 11.5747C20.814 11.5831 20.886 11.5908 20.9585 11.5998C21.0988 11.6171 21.1873 11.6221 21.2224 11.6135C21.2574 11.6051 21.2842 11.5858 21.3043 11.5559C21.3243 11.5263 21.3344 11.4867 21.3344 11.4379C21.3344 11.3833 21.321 11.3374 21.2951 11.2999C21.2694 11.2627 21.2327 11.2357 21.184 11.2209C21.161 11.2138 21.0897 11.2028 20.9702 11.1877C20.8944 11.1781 20.8182 11.1695 20.7422 11.1605C20.7422 11.2986 20.7422 11.4369 20.7422 11.5747ZM21.9124 12.6646C21.9124 12.3954 21.9124 12.1261 21.9124 11.8566C21.9124 11.5873 21.9124 11.3181 21.9124 11.0488C22.2707 11.1088 22.6299 11.1731 22.9889 11.2393C22.9889 11.3284 22.9889 11.4176 22.9889 11.5068C22.7276 11.4604 22.4662 11.4143 22.2055 11.3698C22.2055 11.4889 22.2055 11.6076 22.2055 11.7264C22.4486 11.7661 22.6916 11.8068 22.9347 11.8479C22.9347 11.9368 22.9347 12.0255 22.9347 12.1143C22.6916 12.0747 22.4486 12.0357 22.2055 11.9972C22.2055 12.0702 22.2055 12.1432 22.2055 12.2162C22.2055 12.2889 22.2055 12.3622 22.2055 12.4349C22.4761 12.4755 22.7467 12.5164 23.0175 12.5577C23.0175 12.6464 23.0175 12.735 23.0175 12.8238C22.649 12.7704 22.2807 12.7168 21.9124 12.6646Z" fill="white"/>
<path fill-rule="evenodd" clip-rule="evenodd" d="M24.7922 15.5211C24.8893 15.5512 24.9871 15.5813 25.0854 15.6114C25.0614 15.7233 25.0666 15.8148 25.0999 15.8857C25.1329 15.9562 25.1934 16.0107 25.282 16.0482C25.3747 16.0875 25.453 16.0956 25.5175 16.0724C25.5811 16.0494 25.6248 16.0092 25.647 15.9516C25.6614 15.9144 25.6629 15.8788 25.6529 15.844C25.643 15.8096 25.6175 15.7716 25.5754 15.7311C25.5469 15.7038 25.4785 15.6475 25.3703 15.5625C25.2311 15.453 25.1431 15.3531 25.1045 15.2646C25.0496 15.1385 25.0466 15.013 25.0947 14.8873C25.1256 14.8063 25.1746 14.7394 25.243 14.6873C25.3113 14.6355 25.3913 14.6081 25.4833 14.6066C25.5756 14.6047 25.6769 14.6287 25.7868 14.6779C25.9671 14.7586 26.0849 14.8621 26.1425 14.9889C26.1999 15.1156 26.2032 15.2512 26.1521 15.3967C26.0533 15.359 25.9553 15.3214 25.8572 15.2834C25.8764 15.1973 25.8721 15.1274 25.8452 15.0743C25.8181 15.0209 25.7632 14.9761 25.6824 14.9402C25.5983 14.9031 25.5248 14.8927 25.4631 14.9098C25.4233 14.9209 25.3949 14.9464 25.3791 14.9872C25.3646 15.0248 25.3672 15.0629 25.3855 15.1022C25.4087 15.1517 25.4841 15.2264 25.6102 15.3239C25.7379 15.4225 25.8274 15.5057 25.8795 15.5735C25.9316 15.6415 25.9639 15.7173 25.9761 15.8012C25.9882 15.8849 25.9751 15.9759 25.9369 16.0742C25.9022 16.1635 25.8464 16.2379 25.7705 16.2963C25.6944 16.3548 25.6074 16.3855 25.5091 16.3887C25.4112 16.3916 25.2994 16.367 25.1757 16.3151C24.9941 16.2388 24.8723 16.1344 24.8106 16.0009C24.7489 15.8671 24.7429 15.7068 24.7922 15.5211ZM26.0031 16.6309C26.1042 16.372 26.2056 16.1133 26.3066 15.8544C26.4076 15.5955 26.5091 15.3367 26.6103 15.0778C26.9644 15.2363 27.3187 15.3948 27.6728 15.5531C27.6383 15.6391 27.6042 15.7252 27.5701 15.8113C27.3125 15.6971 27.0549 15.5832 26.7972 15.4691C26.7521 15.5832 26.7075 15.6975 26.6623 15.8116C26.9019 15.9161 27.1414 16.0208 27.3821 16.126C27.3476 16.2114 27.3137 16.2971 27.2798 16.3828C27.0394 16.2789 26.8001 16.1753 26.5602 16.0716C26.5326 16.1419 26.5049 16.2122 26.4773 16.282C26.4496 16.3518 26.4224 16.4223 26.3951 16.4925C26.6615 16.6054 26.9284 16.7189 27.1952 16.8323C27.1613 16.9181 27.127 17.0034 27.0931 17.089C26.73 16.9365 26.3667 16.7841 26.0031 16.6309ZM27.3462 17.1956C27.4464 16.9449 27.547 16.6942 27.6472 16.4435C27.7475 16.1929 27.8478 15.9417 27.9481 15.6909C28.0445 15.7341 28.1409 15.7774 28.2375 15.8205C28.1542 16.0276 28.0708 16.2351 27.9877 16.4419C27.9043 16.6489 27.8213 16.8561 27.738 17.0632C27.9777 17.1647 28.2172 17.2666 28.4572 17.3685C28.423 17.4521 28.3891 17.5362 28.355 17.6199C28.0182 17.4782 27.6824 17.337 27.3462 17.1956ZM28.5635 17.7075C28.6646 17.4602 28.7657 17.2127 28.8669 16.9654C28.9681 16.7182 29.0693 16.4706 29.1705 16.2233C29.4981 16.3698 29.8257 16.5164 30.1533 16.6627C30.1191 16.7452 30.0848 16.8273 30.0506 16.9096C29.819 16.8071 29.5881 16.7049 29.3571 16.6026C29.3092 16.719 29.2614 16.8356 29.2135 16.9519C29.4127 17.039 29.6124 17.1259 29.8117 17.2129C29.7773 17.2955 29.7431 17.3777 29.7093 17.4603C29.5098 17.3741 29.3102 17.288 29.1107 17.2017C29.0677 17.3064 29.0248 17.4111 28.9819 17.5154C28.9389 17.62 28.896 17.7247 28.8531 17.8291C28.7562 17.7884 28.6599 17.7478 28.5635 17.7075Z" fill="white"/>
<path fill-rule="evenodd" clip-rule="evenodd" d="M9.72924 33.4064L9.94303 33.9485C9.99122 34.0706 10.0187 34.1672 10.0253 34.239C10.0339 34.3352 10.018 34.4268 9.97706 34.5137C9.93674 34.6008 9.8759 34.6789 9.79484 34.7481C9.71333 34.8169 9.60402 34.8786 9.46623 34.933C9.34549 34.9806 9.23524 35.0067 9.13574 35.0112C9.01465 35.0166 8.90742 34.9984 8.8145 34.9561C8.74398 34.9246 8.67758 34.8705 8.61501 34.7941C8.56841 34.7369 8.52361 34.6534 8.48032 34.5437L8.26025 33.9858L9.72924 33.4064ZM9.59759 33.801L8.62483 34.1846L8.71212 34.406C8.74478 34.4888 8.77281 34.5469 8.79701 34.58C8.82787 34.6231 8.86385 34.6552 8.90503 34.6757C8.94636 34.6961 9.00402 34.7031 9.07765 34.6974C9.15113 34.6913 9.24513 34.6661 9.35871 34.6213C9.47222 34.5765 9.5551 34.532 9.60806 34.4881C9.66102 34.444 9.69751 34.3971 9.71717 34.3479C9.73711 34.2982 9.74195 34.2432 9.73205 34.1831C9.72533 34.138 9.6978 34.0552 9.65004 33.9341L9.59759 33.801Z" fill="white"/>
<path fill-rule="evenodd" clip-rule="evenodd" d="M8.94824 35.4452L10.3263 34.6742L10.8979 35.6958L10.6646 35.8263L10.2487 35.0829L9.94324 35.2538L10.3303 35.9455L10.0983 36.0754L9.71124 35.3835L9.33617 35.5934L9.7668 36.3632L9.53451 36.4931L8.94824 35.4452Z" fill="white"/>
<path fill-rule="evenodd" clip-rule="evenodd" d="M9.67811 36.7434L11.0094 35.9182L11.1773 36.1891L10.0723 36.8741L10.4899 37.5478L10.2636 37.6881L9.67811 36.7434Z" fill="white"/>
<path fill-rule="evenodd" clip-rule="evenodd" d="M10.4467 37.8666L11.6789 36.8792L11.8785 37.1281L11.3937 37.5167L11.7844 38.0041L12.2692 37.6156L12.4685 37.8643L11.2363 38.8519L11.037 38.6031L11.5758 38.1713L11.1851 37.6839L10.6463 38.1157L10.4467 37.8666Z" fill="white"/>
<path fill-rule="evenodd" clip-rule="evenodd" d="M11.4932 39.1369L12.6329 38.0438L12.8535 38.2739L11.7139 39.367L11.4932 39.1369Z" fill="white"/>
<path fill-rule="evenodd" clip-rule="evenodd" d="M15.7616 42.633L15.8779 41.3243H16.3392C16.514 41.3243 16.6275 41.3309 16.6793 41.3441C16.7592 41.3636 16.8241 41.4062 16.8733 41.472C16.9225 41.5379 16.9425 41.6229 16.9332 41.7268C16.9261 41.8072 16.9043 41.8749 16.8675 41.9294C16.8308 41.9842 16.7869 42.0272 16.735 42.0586C16.6834 42.0897 16.6319 42.1104 16.5806 42.1204C16.5108 42.1329 16.4108 42.1394 16.2804 42.1394H16.093L16.0491 42.633H15.7616ZM16.1457 41.5458L16.1127 41.9169H16.2699C16.3834 41.9169 16.46 41.9102 16.4993 41.8965C16.5387 41.8828 16.5704 41.8615 16.5949 41.8322C16.6191 41.803 16.633 41.7691 16.6365 41.7304C16.6407 41.6829 16.6289 41.6436 16.6012 41.6125C16.5737 41.5817 16.5367 41.5622 16.4909 41.5546C16.4569 41.5486 16.3881 41.5458 16.2847 41.5458H16.1457Z" fill="white"/>
<path fill-rule="evenodd" clip-rule="evenodd" d="M17.1289 41.4901H17.3931L17.3604 42.2178C17.3553 42.3332 17.3553 42.4083 17.3601 42.4424C17.369 42.4974 17.394 42.5416 17.4349 42.5747C17.4761 42.6082 17.5335 42.6248 17.6073 42.6248C17.6823 42.6248 17.7396 42.6091 17.7791 42.5776C17.8186 42.5463 17.8432 42.5075 17.8529 42.4618C17.8629 42.4158 17.87 42.3398 17.8747 42.2334L17.9081 41.4901H18.1723L18.1406 42.1958C18.1333 42.3573 18.1212 42.4712 18.1039 42.5378C18.0866 42.6044 18.0579 42.6604 18.0174 42.7065C17.9769 42.7521 17.9239 42.7888 17.8585 42.8159C17.7931 42.8432 17.7084 42.8566 17.6048 42.8566C17.4799 42.8566 17.3858 42.8419 17.3225 42.8122C17.2593 42.7825 17.2101 42.744 17.1747 42.6968C17.1394 42.6495 17.1169 42.5997 17.1074 42.5479C17.0935 42.4708 17.09 42.3573 17.0968 42.2068L17.1289 41.4901Z" fill="white"/>
<path fill-rule="evenodd" clip-rule="evenodd" d="M18.3729 41.5867H18.896C18.9996 41.5867 19.0771 41.591 19.128 41.6C19.1788 41.6087 19.2242 41.627 19.2645 41.655C19.3047 41.6828 19.3379 41.7198 19.3647 41.7663C19.3915 41.8125 19.4049 41.8646 19.4049 41.922C19.4049 41.9844 19.3884 42.0417 19.3556 42.0939C19.3224 42.146 19.2776 42.1851 19.2212 42.2112C19.3007 42.2347 19.3623 42.275 19.4049 42.3318C19.4479 42.3889 19.4692 42.4559 19.4692 42.5328C19.4692 42.5933 19.4555 42.6523 19.4277 42.7096C19.4001 42.7667 19.3623 42.8126 19.3145 42.8468C19.2666 42.8809 19.2074 42.902 19.1371 42.91C19.0932 42.9147 18.9869 42.9178 18.8184 42.919H18.3729V41.5867ZM18.6374 41.8085V42.1165H18.8104C18.9134 42.1165 18.9775 42.115 19.0024 42.1119C19.0475 42.1066 19.0832 42.0908 19.109 42.0644C19.1349 42.038 19.1478 42.0033 19.1478 41.9602C19.1478 41.9189 19.1368 41.8854 19.1146 41.8597C19.092 41.8339 19.0588 41.8184 19.0149 41.8131C18.9887 41.81 18.9134 41.8085 18.7891 41.8085H18.6374ZM18.6374 42.3383V42.6945H18.8818C18.9771 42.6945 19.0375 42.6919 19.063 42.6864C19.1024 42.6792 19.1344 42.6612 19.159 42.6333C19.1837 42.6051 19.1962 42.5672 19.1962 42.5201C19.1962 42.4801 19.1865 42.4463 19.1676 42.4184C19.1483 42.3904 19.121 42.37 19.085 42.3573C19.0491 42.3445 18.9707 42.3383 18.8507 42.3383H18.6374Z" fill="white"/>
<path fill-rule="evenodd" clip-rule="evenodd" d="M19.7173 42.9346V41.6365H19.9815V42.714H20.6385V42.9346H19.7173Z" fill="white"/>
<path fill-rule="evenodd" clip-rule="evenodd" d="M20.8275 42.8603V41.5516H21.0918V42.8603H20.8275Z" fill="white"/>
<path fill-rule="evenodd" clip-rule="evenodd" d="M22.0892 42.2587L22.3451 42.3411C22.3058 42.4865 22.2406 42.5943 22.1491 42.6649C22.0581 42.7353 21.9419 42.7707 21.8015 42.7707C21.6278 42.7707 21.4849 42.7102 21.3731 42.5897C21.2612 42.4688 21.2051 42.3036 21.2051 42.0944C21.2051 41.8728 21.2616 41.7008 21.374 41.578C21.4864 41.4556 21.6343 41.3942 21.8176 41.3942C21.9776 41.3942 22.1077 41.4423 22.2077 41.5387C22.2673 41.5954 22.3119 41.6772 22.3418 41.7838L22.08 41.8474C22.0647 41.7783 22.0324 41.7237 21.9831 41.6837C21.934 41.6438 21.8743 41.6239 21.8042 41.6239C21.7073 41.6239 21.6284 41.6592 21.5681 41.7302C21.5078 41.8009 21.4776 41.9155 21.4776 42.0743C21.4776 42.2426 21.5072 42.3625 21.5669 42.4337C21.6262 42.5053 21.7037 42.541 21.7987 42.541C21.8691 42.541 21.9294 42.5183 21.98 42.4728C22.0306 42.4276 22.0669 42.356 22.0892 42.2587Z" fill="white"/>
<path fill-rule="evenodd" clip-rule="evenodd" d="M25.3937 39.5914L25.5383 39.3704C25.6169 39.4137 25.6875 39.4293 25.7502 39.4174C25.8125 39.4056 25.8695 39.3679 25.921 39.3038C25.9755 39.2361 26.0023 39.1733 26.001 39.116C26.0001 39.0585 25.9804 39.0142 25.9421 38.9835C25.9174 38.9636 25.8906 38.954 25.8617 38.9548C25.8327 38.955 25.7974 38.9682 25.7557 38.9941C25.7272 39.0116 25.6669 39.0559 25.5746 39.1259C25.456 39.2163 25.3579 39.2677 25.2807 39.2803C25.1718 39.2983 25.0762 39.2741 24.9937 39.2078C24.9405 39.1651 24.9031 39.1103 24.881 39.0428C24.8591 38.9757 24.8589 38.9039 24.88 38.8279C24.9016 38.7518 24.9444 38.6738 25.0088 38.5937C25.1142 38.4627 25.2219 38.3874 25.3323 38.3673C25.4429 38.3476 25.5473 38.3742 25.6459 38.448L25.4859 38.6658C25.425 38.6316 25.3708 38.62 25.3237 38.6309C25.2764 38.6415 25.2291 38.6766 25.1814 38.7358C25.1323 38.797 25.106 38.8549 25.1035 38.9097C25.1016 38.9449 25.1142 38.9734 25.1411 38.9952C25.1659 39.015 25.1954 39.0216 25.2297 39.0147C25.2733 39.0062 25.3484 38.9605 25.4548 38.8773C25.5614 38.7944 25.6473 38.7389 25.7125 38.7105C25.7778 38.6823 25.8439 38.6723 25.9111 38.6805C25.9784 38.6889 26.0448 38.7196 26.1106 38.7725C26.1703 38.8205 26.213 38.8821 26.2382 38.9571C26.2637 39.0323 26.2648 39.1104 26.2413 39.1913C26.2179 39.2725 26.1697 39.3584 26.0969 39.4489C25.991 39.5806 25.8793 39.6574 25.7616 39.679C25.6438 39.7007 25.5211 39.6715 25.3937 39.5914Z" fill="white"/>
<path fill-rule="evenodd" clip-rule="evenodd" d="M26.7688 37.9905L26.994 37.8407C27.0814 37.9617 27.1234 38.0799 27.1202 38.1955C27.117 38.3107 27.071 38.4237 26.9823 38.534C26.8727 38.6703 26.7359 38.745 26.5722 38.7579C26.4084 38.7707 26.2455 38.7122 26.084 38.5824C25.913 38.4449 25.8159 38.2939 25.7921 38.1294C25.7687 37.9652 25.8145 37.8111 25.9303 37.6671C26.0313 37.5415 26.1505 37.4692 26.288 37.4506C26.3695 37.4389 26.4607 37.4548 26.5618 37.4975L26.4456 37.7424C26.3828 37.7114 26.3202 37.703 26.2582 37.7169C26.1963 37.7306 26.1434 37.7651 26.0991 37.8201C26.038 37.8962 26.0154 37.9801 26.0321 38.0715C26.0485 38.1627 26.1179 38.2575 26.2404 38.356C26.3703 38.4605 26.4815 38.5117 26.5743 38.509C26.667 38.5069 26.7434 38.4682 26.8033 38.3936C26.8478 38.3384 26.8684 38.277 26.8652 38.209C26.8622 38.1412 26.8298 38.0683 26.7688 37.9905Z" fill="white"/>
<path fill-rule="evenodd" clip-rule="evenodd" d="M27.4271 37.8817L26.409 37.1199L26.563 36.9141L26.9635 37.2139L27.2649 36.8111L26.8643 36.5113L27.0181 36.3058L28.0362 37.0677L27.8824 37.2732L27.4372 36.9401L27.1359 37.3428L27.581 37.6759L27.4271 37.8817Z" fill="white"/>
<path fill-rule="evenodd" clip-rule="evenodd" d="M28.2271 35.19C28.1225 35.1058 28.0472 35.0197 28.0015 34.9314C27.9682 34.866 27.9467 34.7964 27.9375 34.7226C27.9287 34.6489 27.9334 34.5799 27.952 34.5158C27.9762 34.4298 28.0221 34.3454 28.0894 34.2618C28.211 34.1105 28.3551 34.0273 28.522 34.012C28.6887 33.9965 28.8558 34.056 29.0228 34.1903C29.1886 34.3237 29.2818 34.4731 29.303 34.6385C29.324 34.8038 29.274 34.9619 29.1529 35.1125C29.0302 35.2651 28.8859 35.349 28.7205 35.3644C28.5548 35.3795 28.3904 35.3213 28.2271 35.19ZM28.3919 34.971C28.5079 35.0644 28.6179 35.1083 28.7209 35.1031C28.8241 35.0975 28.9088 35.0534 28.9753 34.9708C29.0416 34.8882 29.0665 34.7966 29.0494 34.6955C29.0324 34.5948 28.9646 34.4966 28.8456 34.4009C28.728 34.3064 28.6196 34.2616 28.5201 34.2662C28.4208 34.2713 28.3368 34.3167 28.2681 34.4021C28.1993 34.4876 28.1734 34.5801 28.1899 34.6795C28.2066 34.7787 28.2735 34.8759 28.3919 34.971Z" fill="white"/>
<path fill-rule="evenodd" clip-rule="evenodd" d="M29.5246 34.1608L28.3101 33.7759L28.3884 33.5287L29.3965 33.8481L29.5913 33.2335L29.7978 33.2989L29.5246 34.1608Z" fill="white"/>
<path fill-rule="evenodd" clip-rule="evenodd" d="M27.5724 36.4484C27.4678 36.3643 27.3925 36.2782 27.3468 36.1898C27.3135 36.1244 27.292 36.0549 27.2829 35.9811C27.274 35.9074 27.2787 35.8384 27.2973 35.7742C27.3215 35.6883 27.3674 35.6039 27.4347 35.5203C27.5563 35.369 27.7004 35.2857 27.8673 35.2705C28.034 35.2549 28.2011 35.3145 28.3681 35.4488C28.5339 35.5822 28.6271 35.7316 28.6483 35.897C28.6693 36.0622 28.6193 36.2203 28.4982 36.3709C28.3755 36.5236 28.2312 36.6075 28.0658 36.6229C27.9001 36.638 27.7357 36.5797 27.5724 36.4484ZM27.7372 36.2295C27.8532 36.3229 27.9632 36.3668 28.0662 36.3615C28.1694 36.3559 28.2541 36.3119 28.3206 36.2292C28.3869 36.1467 28.4118 36.055 28.3947 35.9539C28.3777 35.8533 28.3099 35.7551 28.1909 35.6594C28.0733 35.5648 27.9649 35.52 27.8654 35.5247C27.7661 35.5298 27.6821 35.5752 27.6134 35.6606C27.5446 35.7461 27.5187 35.8385 27.5352 35.938C27.5519 36.0372 27.6188 36.1343 27.7372 36.2295Z" fill="white"/>
</svg>
