<svg width="2519" height="2519" viewBox="0 0 2519 2519" fill="none" xmlns="http://www.w3.org/2000/svg">
<circle cx="1259.5" cy="1259.5" r="1259.5" fill="black"/>
<path d="M1212.53 1328.19H1060.2C1056.94 1328.19 1053.71 1328.93 1050.77 1330.36C1043.34 1333.98 1038.62 1341.55 1038.62 1349.84V1359.2C1038.62 1365.41 1040.19 1371.52 1043.19 1376.95L1067.71 1421.3L1150.82 1558.95L1213.15 1668.26L1264.57 1750.55C1269.02 1757.68 1274.98 1763.74 1282.02 1768.31C1291.32 1774.35 1302.16 1777.57 1313.24 1777.57H2049.06C2054.09 1777.57 2059.04 1776.23 2063.39 1773.68L2070.32 1769.63C2074.78 1767.02 2077.52 1762.24 2077.52 1757.06C2077.52 1754.58 2076.89 1752.14 2075.69 1749.97L2023.5 1656.11L1957.01 1538.71L1890.52 1425.35L1867.2 1389.64C1863.6 1384.14 1857.48 1380.82 1850.91 1380.82C1844.49 1380.82 1838.48 1383.99 1834.85 1389.3L1832.34 1392.96L1731.9 1553.43C1729.61 1557.1 1726.95 1560.52 1723.96 1563.65C1711.99 1576.16 1695.45 1583.24 1678.16 1583.24H1425.89C1417.27 1583.24 1408.87 1580.5 1401.9 1575.41C1398 1572.55 1394.63 1569.03 1391.96 1564.99L1312.89 1445.59L1255.32 1352.12C1252.17 1347 1248.13 1342.49 1243.39 1338.8C1234.57 1331.92 1223.71 1328.19 1212.53 1328.19Z" fill="#F9CA24"/>
<path d="M1509.82 312H1351.83C1348.2 312 1344.7 313.423 1342.09 315.966C1339.38 318.607 1337.85 322.236 1337.85 326.026V332.511C1337.85 337.64 1339.19 342.68 1341.73 347.129L1716.84 1002.52C1719.02 1006.34 1722.09 1009.59 1725.78 1011.98C1730.25 1014.89 1735.47 1016.43 1740.8 1016.43H1891.59C1896.39 1016.43 1901.14 1015.48 1905.57 1013.63L1912 1010.95C1921.66 1006.92 1927.95 997.453 1927.95 986.961C1927.95 982.4 1926.75 977.918 1924.48 973.968L1736.79 648.023L1578.87 372.727L1558.96 343.619C1555.62 338.746 1551.81 334.216 1547.58 330.098L1542.77 325.409C1539.16 321.89 1535.01 318.973 1530.48 316.766C1524.04 313.63 1516.98 312 1509.82 312Z" fill="#F9CA24"/>
<path d="M2007.65 1999.91L2083.99 1865.74C2085.84 1862.47 2086.3 1858.63 2085.25 1855.07C2084.22 1851.59 2081.84 1848.65 2078.6 1846.9L2072.47 1843.59C2067.88 1841.12 2062.71 1839.82 2057.45 1839.84L1286.97 1841.71C1282.66 1841.72 1278.4 1842.73 1274.55 1844.67C1269.7 1847.12 1265.68 1850.92 1263.02 1855.6L1190.22 1983.54C1187.78 1987.84 1186.25 1992.57 1185.74 1997.45L1185.15 2003.16C1184.03 2013.83 1189.46 2024.05 1198.96 2029.18C1203 2031.36 1207.55 2032.49 1212.19 2032.47L1595.83 2030.57L1919.55 2029.48L1955.54 2026.61C1961.39 2026.14 1967.2 2025.11 1972.87 2023.52L1979.74 2021.6C1984.51 2020.27 1989.04 2018.19 1993.15 2015.44C1999.15 2011.44 2004.11 2006.12 2007.65 1999.91Z" fill="#F9CA24"/>
<path d="M1654.91 1016.43L1281.6 371.192C1277.81 364.647 1270.84 360.618 1263.29 360.618C1257.79 360.618 1252.5 362.771 1248.55 366.62L1248.42 366.743C1247.07 368.052 1245.91 369.531 1244.94 371.143L1028.61 733.003C1027 735.701 1026.15 738.786 1026.15 741.931C1026.15 746.623 1028.04 751.115 1031.4 754.385L1032.89 755.839C1033.93 756.856 1035.07 757.767 1036.29 758.561L1037.57 759.391C1043.68 763.355 1050.79 765.465 1058.07 765.465H1231.09C1235.74 765.465 1240.39 765.839 1244.99 766.585L1248.75 767.196C1258.16 768.724 1267.15 772.196 1275.15 777.393C1283.58 782.869 1290.71 790.131 1296.05 798.668L1346.13 878.822L1412.29 1000.94C1420.69 1016.45 1425.09 1033.81 1425.09 1051.45V1061.07C1425.09 1066.39 1424.21 1071.67 1422.49 1076.7C1421.45 1079.72 1420.12 1082.63 1418.51 1085.39L1306.52 1277.26C1302.52 1284.11 1300.42 1291.9 1300.42 1299.84C1300.42 1307.8 1302.54 1315.63 1306.57 1322.5L1396.99 1476.65C1398.95 1479.99 1402.52 1482.04 1406.39 1482.04C1410.25 1482.04 1413.82 1479.99 1415.78 1476.65L1654.75 1069.24C1659.47 1061.2 1661.96 1052.03 1661.96 1042.7C1661.96 1033.47 1659.52 1024.41 1654.91 1016.43Z" fill="#F9CA24"/>
<path d="M1324.43 1073.22L856.001 1077.13C850.4 1077.17 844.88 1078.47 839.842 1080.92C833.963 1083.79 828.927 1088.13 825.229 1093.54L814.249 1109.58L446.524 1749.59C445.131 1752.01 444.397 1754.76 444.397 1757.56C444.397 1766.38 451.527 1773.53 460.322 1773.53H875.774C879.041 1773.53 882.27 1772.78 885.21 1771.35C892.636 1767.74 897.362 1760.18 897.362 1751.9C897.362 1747.53 896.043 1743.26 893.578 1739.66L889.05 1733.05L864.117 1688.51L809.066 1591.31C801.568 1578.07 797.626 1563.1 797.626 1547.88C797.626 1533.88 800.959 1520.08 807.348 1507.63L814.249 1494.19L932.74 1301.8C936.832 1295.15 941.969 1289.22 947.953 1284.22C960.912 1273.4 977.241 1267.47 994.104 1267.47H1215.77C1232.6 1267.47 1248.58 1260.1 1259.54 1247.3C1261.88 1244.56 1263.96 1241.61 1265.75 1238.48L1337.36 1113.65C1340.41 1108.33 1342.01 1102.31 1342.01 1096.17V1090.72C1342.01 1087.18 1340.95 1083.73 1338.95 1080.82C1335.67 1076.02 1330.23 1073.18 1324.43 1073.22Z" fill="#F9CA24"/>
<path d="M1324.43 1073.22L856.001 1077.13C850.4 1077.17 844.88 1078.47 839.842 1080.92C833.963 1083.79 828.927 1088.13 825.229 1093.54L814.249 1109.58L446.524 1749.59C445.131 1752.01 444.397 1754.76 444.397 1757.56C444.397 1766.38 451.527 1773.53 460.322 1773.53H875.774C879.041 1773.53 882.27 1772.78 885.21 1771.35C892.636 1767.74 897.362 1760.18 897.362 1751.9C897.362 1747.53 896.043 1743.26 893.578 1739.66L889.05 1733.05L864.117 1688.51L809.066 1591.31C801.568 1578.07 797.626 1563.1 797.626 1547.88C797.626 1533.88 800.959 1520.08 807.348 1507.63L814.249 1494.19L932.74 1301.8C936.832 1295.15 941.969 1289.22 947.953 1284.22C960.912 1273.4 977.241 1267.47 994.104 1267.47H1215.77C1232.6 1267.47 1248.58 1260.1 1259.54 1247.3C1261.88 1244.56 1263.96 1241.61 1265.75 1238.48L1337.36 1113.65C1340.41 1108.33 1342.01 1102.31 1342.01 1096.17V1090.72C1342.01 1087.18 1340.95 1083.73 1338.95 1080.82C1335.67 1076.02 1330.23 1073.18 1324.43 1073.22Z" fill="#F9CA24"/>
<path d="M280.991 1530.66L660.42 877.88C663.026 873.396 667.812 870.638 672.987 870.638C678.112 870.638 682.859 873.343 685.483 877.758L764.292 1010.37C769.779 1019.61 772.676 1030.15 772.676 1040.9C772.676 1051.36 769.933 1061.64 764.723 1070.7L388.278 1725.3C386.994 1727.54 384.618 1728.91 382.046 1728.91C374.306 1728.91 367.127 1724.86 363.11 1718.23L281.46 1583.35C276.58 1575.29 274 1566.04 274 1556.61C274 1547.49 276.413 1538.53 280.991 1530.66Z" fill="#F9CA24"/>
<path d="M827.147 988.246L755.849 871.428C748.958 860.138 745.311 847.158 745.311 833.921C745.311 829.449 748.926 825.824 753.385 825.824H1197.57C1216.8 825.824 1235.41 832.682 1250.06 845.174C1257.04 851.124 1262.97 858.216 1267.58 866.151L1326.96 968.234C1329.77 973.069 1331.26 978.567 1331.26 984.164V990.403C1331.26 998.693 1326.53 1006.26 1319.1 1009.88C1316.16 1011.31 1312.93 1012.05 1309.67 1012.05H869.51C864.315 1012.05 859.152 1011.24 854.209 1009.63C842.933 1005.97 833.334 998.384 827.147 988.246Z" fill="#F9CA24"/>
<path d="M1215.43 1825.99L1143.77 1950.57C1136.78 1962.73 1126.59 1972.8 1114.25 1979.74C1110.08 1982.08 1104.73 1980.64 1102.29 1976.53L870.358 1585.17C859.984 1567.66 856.463 1547.11 860.463 1527.41C862.295 1518.38 865.663 1509.74 870.428 1501.85L934.703 1395.38C937.729 1390.37 942.023 1386.22 947.174 1383.32L953.711 1379.64C961.069 1375.51 970.223 1375.81 977.395 1380.42C980.389 1382.34 982.886 1384.93 984.685 1387.96L1214.95 1776.51C1217.74 1781.22 1219.74 1786.34 1220.86 1791.66C1223.33 1803.43 1221.4 1815.61 1215.43 1825.99Z" fill="#F9CA24"/>
<path d="M1478.62 1488.07L1719.55 1085.13C1722.61 1080.01 1727.41 1076.18 1733.07 1074.35C1735.52 1073.55 1738.07 1073.15 1740.65 1073.15H1909.09C1910.56 1073.15 1912.03 1073.29 1913.47 1073.57C1924.28 1075.68 1932.08 1085.17 1932.08 1096.2V1098.55C1932.08 1103.12 1930.87 1107.62 1928.57 1111.57L1878.05 1198.65L1811.56 1316.06L1745.07 1429.41L1709.77 1491.32C1705.63 1498.57 1700.24 1505.02 1693.84 1510.37C1681.3 1520.84 1665.49 1526.58 1649.17 1526.58H1499.61C1494.39 1526.58 1489.31 1524.92 1485.09 1521.83C1478.72 1517.18 1474.96 1509.76 1474.96 1501.85V1501.32C1474.96 1496.65 1476.22 1492.07 1478.62 1488.07Z" fill="#F9CA24"/>
<path d="M1478.62 1488.07L1719.55 1085.13C1722.61 1080.01 1727.41 1076.18 1733.07 1074.35C1735.52 1073.55 1738.07 1073.15 1740.65 1073.15H1909.09C1910.56 1073.15 1912.03 1073.29 1913.47 1073.57C1924.28 1075.68 1932.08 1085.17 1932.08 1096.2V1098.55C1932.08 1103.12 1930.87 1107.62 1928.57 1111.57L1878.05 1198.65L1811.56 1316.06L1745.07 1429.41L1709.77 1491.32C1705.63 1498.57 1700.24 1505.02 1693.84 1510.37C1681.3 1520.84 1665.49 1526.58 1649.17 1526.58H1499.61C1494.39 1526.58 1489.31 1524.92 1485.09 1521.83C1478.72 1517.18 1474.96 1509.76 1474.96 1501.85V1501.32C1474.96 1496.65 1476.22 1492.07 1478.62 1488.07Z" fill="#F9CA24"/>
</svg>
