<svg width="1468" height="1394" viewBox="0 0 1468 1394" fill="none" xmlns="http://www.w3.org/2000/svg">
<path d="M760.438 823.358H637.017C634.369 823.358 631.756 823.961 629.375 825.121C623.35 828.055 619.526 834.183 619.526 840.9V848.489C619.526 853.52 620.802 858.469 623.234 862.87L643.095 898.803L710.436 1010.33L760.943 1098.9L802.604 1165.58C806.212 1171.35 811.037 1176.26 816.741 1179.97C824.275 1184.86 833.06 1187.46 842.036 1187.46H1438.23C1442.31 1187.46 1446.32 1186.38 1449.84 1184.32L1455.46 1181.04C1459.07 1178.92 1461.29 1175.04 1461.29 1170.85C1461.29 1168.84 1460.78 1166.86 1459.8 1165.11L1417.52 1089.06L1363.65 993.93L1309.78 902.084L1290.88 873.154C1287.96 868.69 1283 866.001 1277.68 866.001C1272.48 866.001 1267.61 868.571 1264.67 872.871L1262.64 875.842L1181.26 1005.86C1179.4 1008.83 1177.24 1011.61 1174.82 1014.14C1165.12 1024.28 1151.72 1030.01 1137.71 1030.01H933.308C926.324 1030.01 919.521 1027.79 913.877 1023.67C910.713 1021.36 907.985 1018.5 905.82 1015.23L841.752 918.485L795.108 842.749C792.554 838.603 789.281 834.947 785.443 831.956C778.293 826.383 769.495 823.358 760.438 823.358Z" fill="black"/>
<path d="M1001.31 0H873.308C870.359 0 867.527 1.15258 865.412 3.21303C863.215 5.353 861.976 8.29345 861.976 11.3646V16.6186C861.976 20.7748 863.061 24.8584 865.124 28.463L1169.05 559.489C1170.82 562.586 1173.31 565.215 1176.29 567.157C1179.92 569.51 1184.14 570.763 1188.46 570.763H1310.64C1314.53 570.763 1318.38 569.992 1321.96 568.494L1327.18 566.318C1335 563.051 1340.1 555.384 1340.1 546.883C1340.1 543.187 1339.13 539.556 1337.29 536.355L1185.21 272.26L1057.27 49.2037L1041.13 25.6194C1038.42 21.6705 1035.34 18.0005 1031.91 14.6634L1028.01 10.8645C1025.09 8.01346 1021.72 5.64944 1018.05 3.86175C1012.84 1.32043 1007.11 0 1001.31 0Z" fill="black"/>
<path d="M1404.67 1367.61L1466.53 1258.91C1468.03 1256.26 1468.4 1253.15 1467.55 1250.26C1466.72 1247.44 1464.79 1245.06 1462.17 1243.65L1457.2 1240.96C1453.48 1238.96 1449.29 1237.91 1445.03 1237.92L820.749 1239.44C817.259 1239.44 813.812 1240.27 810.69 1241.84C806.755 1243.82 803.5 1246.9 801.343 1250.69L742.361 1354.35C740.38 1357.84 739.145 1361.67 738.732 1365.62L738.25 1370.25C737.348 1378.9 741.745 1387.18 749.446 1391.33C752.718 1393.1 756.404 1394.02 760.159 1394L1071.01 1392.46L1333.29 1391.58L1362.45 1389.25C1367.2 1388.87 1371.9 1388.03 1376.5 1386.75L1382.06 1385.19C1385.93 1384.11 1389.6 1382.43 1392.93 1380.2C1397.79 1376.96 1401.81 1372.65 1404.67 1367.61Z" fill="black"/>
<path d="M1118.87 570.761L816.402 47.9601C813.333 42.6568 807.682 39.3927 801.568 39.3927C797.106 39.3927 792.819 41.1369 789.618 44.2551L789.516 44.3553C788.427 45.416 787.48 46.6143 786.7 47.9199L611.417 341.115C610.111 343.301 609.421 345.801 609.421 348.349C609.421 352.151 610.955 355.79 613.674 358.439L614.883 359.617C615.729 360.441 616.653 361.18 617.643 361.823L618.678 362.495C623.625 365.707 629.391 367.417 635.284 367.417H775.476C779.247 367.417 783.012 367.72 786.734 368.325L789.783 368.82C797.407 370.058 804.691 372.871 811.174 377.081C818.006 381.518 823.786 387.402 828.108 394.32L868.685 459.263L922.29 558.211C929.095 570.772 932.659 584.84 932.659 599.136V606.926C932.659 611.235 931.948 615.515 930.553 619.59C929.715 622.041 928.635 624.401 927.33 626.637L836.594 782.093C833.355 787.642 831.647 793.957 831.647 800.387C831.647 806.844 833.369 813.183 836.633 818.749L909.896 943.653C911.483 946.358 914.378 948.019 917.508 948.019C920.637 948.019 923.532 946.358 925.119 943.653L1118.74 613.548C1122.57 607.03 1124.58 599.606 1124.58 592.045C1124.58 584.569 1122.61 577.227 1118.87 570.761Z" fill="black"/>
<path d="M851.1 616.777L471.562 619.938C467.024 619.975 462.552 621.026 458.47 623.015C453.706 625.335 449.626 628.858 446.629 633.237L437.733 646.237L139.786 1164.79C138.657 1166.76 138.063 1168.99 138.063 1171.26C138.063 1178.4 143.84 1184.19 150.966 1184.19H487.583C490.231 1184.19 492.847 1183.59 495.228 1182.43C501.246 1179.5 505.074 1173.38 505.074 1166.67C505.074 1163.13 504.006 1159.67 502.009 1156.75L498.34 1151.39L478.138 1115.31L433.533 1036.55C427.458 1025.82 424.265 1013.7 424.265 1001.36C424.265 990.018 426.965 978.839 432.141 968.754L437.733 957.859L533.739 801.975C537.055 796.592 541.217 791.783 546.066 787.734C556.565 778.967 569.796 774.166 583.459 774.166H763.066C776.698 774.166 789.649 768.195 798.525 757.819C800.422 755.601 802.109 753.209 803.562 750.676L861.578 649.535C864.05 645.225 865.352 640.34 865.352 635.367V630.951C865.352 628.088 864.487 625.292 862.871 622.931C860.212 619.044 855.8 616.738 851.1 616.777Z" fill="black"/>
<path d="M851.1 616.777L471.562 619.938C467.024 619.975 462.552 621.026 458.47 623.015C453.706 625.335 449.626 628.858 446.629 633.237L437.733 646.237L139.786 1164.79C138.657 1166.76 138.063 1168.99 138.063 1171.26C138.063 1178.4 143.84 1184.19 150.966 1184.19H487.583C490.231 1184.19 492.847 1183.59 495.228 1182.43C501.246 1179.5 505.074 1173.38 505.074 1166.67C505.074 1163.13 504.006 1159.67 502.009 1156.75L498.34 1151.39L478.138 1115.31L433.533 1036.55C427.458 1025.82 424.265 1013.7 424.265 1001.36C424.265 990.018 426.965 978.839 432.141 968.754L437.733 957.859L533.739 801.975C537.055 796.592 541.217 791.783 546.066 787.734C556.565 778.967 569.796 774.166 583.459 774.166H763.066C776.698 774.166 789.649 768.195 798.525 757.819C800.422 755.601 802.109 753.209 803.562 750.676L861.578 649.535C864.05 645.225 865.352 640.34 865.352 635.367V630.951C865.352 628.088 864.487 625.292 862.871 622.931C860.212 619.044 855.8 616.738 851.1 616.777Z" fill="black"/>
<path d="M5.66466 987.407L313.094 458.5C315.206 454.867 319.083 452.633 323.277 452.633C327.429 452.633 331.275 454.824 333.401 458.402L397.255 565.851C401.701 573.333 404.048 581.88 404.048 590.589C404.048 599.063 401.826 607.388 397.605 614.729L92.5931 1145.12C91.5522 1146.93 89.6272 1148.04 87.5438 1148.04C81.2722 1148.04 75.4553 1144.76 72.2007 1139.38L6.0446 1030.1C2.09078 1023.57 0 1016.07 0 1008.43C0 1001.05 1.95473 993.79 5.66466 987.407Z" fill="black"/>
<path d="M448.183 547.923L390.415 453.273C384.831 444.125 381.877 433.608 381.877 422.883C381.877 419.259 384.806 416.322 388.419 416.322H748.317C763.901 416.322 778.976 421.879 790.85 432.001C796.505 436.821 801.304 442.568 805.043 448.997L853.154 531.709C855.433 535.627 856.634 540.081 856.634 544.616V549.672C856.634 556.389 852.809 562.516 846.784 565.45C844.403 566.61 841.79 567.213 839.142 567.213H482.508C478.299 567.213 474.115 566.551 470.11 565.25C460.974 562.283 453.197 556.138 448.183 547.923Z" fill="black"/>
<path d="M762.789 1226.7L704.727 1327.64C699.062 1337.49 690.804 1345.65 680.804 1351.28C677.43 1353.17 673.094 1352.01 671.117 1348.67L483.195 1031.58C474.789 1017.39 471.937 1000.74 475.177 984.776C476.662 977.464 479.391 970.464 483.252 964.069L535.33 877.805C537.782 873.743 541.261 870.378 545.435 868.03L550.731 865.051C556.693 861.698 564.11 861.941 569.921 865.679C572.347 867.239 574.37 869.333 575.827 871.792L762.399 1186.61C764.662 1190.43 766.278 1194.58 767.184 1198.89C769.185 1208.42 767.625 1218.29 762.789 1226.7Z" fill="black"/>
<path d="M976.032 952.902L1171.25 626.421C1173.73 622.278 1177.62 619.175 1182.2 617.687C1184.18 617.043 1186.25 616.715 1188.34 616.715H1324.82C1326.01 616.715 1327.2 616.829 1328.37 617.057C1337.12 618.763 1343.45 626.452 1343.45 635.396V637.296C1343.45 641.003 1342.47 644.645 1340.61 647.849L1299.67 718.402L1245.8 813.529L1191.93 905.375L1163.32 955.536C1159.97 961.411 1155.6 966.637 1150.41 970.968C1140.25 979.454 1127.45 984.101 1114.22 984.101H993.04C988.813 984.101 984.695 982.756 981.279 980.26C976.119 976.49 973.067 970.474 973.067 964.071V963.639C973.067 959.857 974.092 956.146 976.032 952.902Z" fill="black"/>
<path d="M976.032 952.902L1171.25 626.421C1173.73 622.278 1177.62 619.175 1182.2 617.687C1184.18 617.043 1186.25 616.715 1188.34 616.715H1324.82C1326.01 616.715 1327.2 616.829 1328.37 617.057C1337.12 618.763 1343.45 626.452 1343.45 635.396V637.296C1343.45 641.003 1342.47 644.645 1340.61 647.849L1299.67 718.402L1245.8 813.529L1191.93 905.375L1163.32 955.536C1159.97 961.411 1155.6 966.637 1150.41 970.968C1140.25 979.454 1127.45 984.101 1114.22 984.101H993.04C988.813 984.101 984.695 982.756 981.279 980.26C976.119 976.49 973.067 970.474 973.067 964.071V963.639C973.067 959.857 974.092 956.146 976.032 952.902Z" fill="black"/>
</svg>
